G04*
G04 #@! TF.GenerationSoftware,Altium Limited,Altium Designer,21.7.1 (17)*
G04*
G04 Layer_Color=128*
%FSLAX25Y25*%
%MOIN*%
G70*
G04*
G04 #@! TF.SameCoordinates,7597F7ED-B0B0-46DE-8649-F5B0F68803AD*
G04*
G04*
G04 #@! TF.FilePolarity,Positive*
G04*
G01*
G75*
%ADD72C,0.00200*%
D72*
X100480Y52756D02*
X103630D01*
X102055Y51181D02*
Y54331D01*
X100480Y62598D02*
X103630D01*
X102055Y61024D02*
Y64173D01*
X29850Y44272D02*
X33787D01*
X31819Y42303D02*
Y46240D01*
X29850Y55177D02*
X33787D01*
X31819Y53209D02*
Y57146D01*
X29850Y66083D02*
X33787D01*
X31819Y64114D02*
Y68051D01*
X41032Y49713D02*
X44969D01*
X43000Y47744D02*
Y51681D01*
X41032Y60630D02*
X44969D01*
X43000Y58661D02*
Y62598D01*
X41032Y71547D02*
X44969D01*
X43000Y69579D02*
Y73516D01*
X41032Y82464D02*
X44969D01*
X43000Y80496D02*
Y84433D01*
X41032Y38795D02*
X44969D01*
X43000Y36827D02*
Y40764D01*
X29850Y76988D02*
X33787D01*
X31819Y75020D02*
Y78957D01*
X31012Y109843D02*
X43807D01*
X37409Y103445D02*
Y116240D01*
X31012Y11417D02*
X43807D01*
X37409Y5020D02*
Y17815D01*
X67803Y64567D02*
X71346D01*
X69575Y62795D02*
Y66338D01*
X67803Y50787D02*
X71346D01*
X69575Y49016D02*
Y52559D01*
X102449Y93110D02*
X103630D01*
X103039Y92520D02*
Y93701D01*
X102449Y97047D02*
X103630D01*
X103039Y96457D02*
Y97638D01*
X137882Y36024D02*
X139063D01*
X138472Y35433D02*
Y36614D01*
X57173Y25197D02*
X58354D01*
X57764Y24606D02*
Y25787D01*
X57173Y22244D02*
X58354D01*
X57764Y21654D02*
Y22835D01*
X2055Y5512D02*
X3236D01*
X2646Y4921D02*
Y6102D01*
X5008Y5512D02*
X6189D01*
X5598Y4921D02*
Y6102D01*
X5008Y2559D02*
X6189D01*
X5598Y1969D02*
Y3150D01*
X2055Y2559D02*
X3236D01*
X2646Y1969D02*
Y3150D01*
X2055Y115748D02*
X3236D01*
X2646Y115157D02*
Y116339D01*
X5008Y115748D02*
X6189D01*
X5598Y115157D02*
Y116339D01*
X5008Y118701D02*
X6189D01*
X5598Y118110D02*
Y119291D01*
X2055Y118701D02*
X3236D01*
X2646Y118110D02*
Y119291D01*
X108354Y73425D02*
X109535D01*
X108945Y72835D02*
Y74016D01*
X104909Y95079D02*
X106090D01*
X105500Y94488D02*
Y95669D01*
X109339Y89173D02*
X110520D01*
X109929Y88583D02*
Y89764D01*
X109339Y86220D02*
X110520D01*
X109929Y85630D02*
Y86811D01*
X134913Y89189D02*
X136094D01*
X135504Y88598D02*
Y89780D01*
X148709Y73425D02*
X149890D01*
X149299Y72835D02*
Y74016D01*
X123118Y89173D02*
X124299D01*
X123709Y88583D02*
Y89764D01*
X135913Y68504D02*
X137094D01*
X136504Y67913D02*
Y69095D01*
X132961Y68504D02*
X134142D01*
X133551Y67913D02*
Y69095D01*
X132961Y84252D02*
X134142D01*
X133551Y83661D02*
Y84842D01*
X145756Y52756D02*
X146937D01*
X146346Y52165D02*
Y53346D01*
X106386Y40945D02*
X107567D01*
X106976Y40354D02*
Y41535D01*
X106386Y43898D02*
X107567D01*
X106976Y43307D02*
Y44488D01*
X105402Y73425D02*
X106583D01*
X105992Y72835D02*
Y74016D01*
X120165Y53740D02*
X121346D01*
X120756Y53150D02*
Y54331D01*
X128039Y57677D02*
X129220D01*
X128630Y57087D02*
Y58268D01*
X130992Y44882D02*
X132173D01*
X131583Y44291D02*
Y45472D01*
X145756Y45866D02*
X146937D01*
X146346Y45276D02*
Y46457D01*
X128039Y94095D02*
X129220D01*
X128630Y93504D02*
Y94685D01*
X128039Y97047D02*
X129220D01*
X128630Y96457D02*
Y97638D01*
X137882Y94095D02*
X139063D01*
X138472Y93504D02*
Y94685D01*
X137882Y97047D02*
X139063D01*
X138472Y96457D02*
Y97638D01*
X151661Y73425D02*
X152842D01*
X152252Y72835D02*
Y74016D01*
X130992Y47835D02*
X132173D01*
X131583Y47244D02*
Y48425D01*
X145756Y42913D02*
X146937D01*
X146346Y42323D02*
Y43504D01*
X134929Y9449D02*
X136110D01*
X135520Y8858D02*
Y10039D01*
X137882Y20276D02*
X139063D01*
X138472Y19685D02*
Y20866D01*
X137882Y17323D02*
X139063D01*
X138472Y16732D02*
Y17913D01*
X137882Y14370D02*
X139063D01*
X138472Y13780D02*
Y14961D01*
X136898Y7480D02*
X138079D01*
X137488Y6890D02*
Y8071D01*
X139850Y6496D02*
X141032D01*
X140441Y5906D02*
Y7087D01*
X139850Y12402D02*
X141032D01*
X140441Y11811D02*
Y12992D01*
X142803Y6496D02*
X143984D01*
X143394Y5906D02*
Y7087D01*
X142803Y12402D02*
X143984D01*
X143394Y11811D02*
Y12992D01*
X145756Y12402D02*
X146937D01*
X146346Y11811D02*
Y12992D01*
X145756Y6496D02*
X146937D01*
X146346Y5906D02*
Y7087D01*
X65047Y4527D02*
X66228D01*
X65638Y3937D02*
Y5118D01*
X65047Y7480D02*
X66228D01*
X65638Y6890D02*
Y8071D01*
X95559Y22244D02*
X96740D01*
X96150Y21654D02*
Y22835D01*
X121150Y3543D02*
X122331D01*
X121740Y2953D02*
Y4134D01*
X144772Y36024D02*
X145953D01*
X145362Y35433D02*
Y36614D01*
X144772Y33071D02*
X145953D01*
X145362Y32480D02*
Y33661D01*
X132961Y87205D02*
X134142D01*
X133551Y86614D02*
Y87795D01*
X136898Y101870D02*
X138079D01*
X137488Y101279D02*
Y102461D01*
X138866Y104429D02*
X140047D01*
X139457Y103839D02*
Y105020D01*
X136996Y106988D02*
X138177D01*
X137587Y106398D02*
Y107579D01*
X128039Y29134D02*
X129220D01*
X128630Y28543D02*
Y29724D01*
X131976Y29134D02*
X133158D01*
X132567Y28543D02*
Y29724D01*
X128039Y25197D02*
X129220D01*
X128630Y24606D02*
Y25787D01*
X130008Y27165D02*
X131189D01*
X130598Y26575D02*
Y27756D01*
X131976Y25197D02*
X133158D01*
X132567Y24606D02*
Y25787D01*
X114260Y35792D02*
X115441D01*
X114850Y35201D02*
Y36383D01*
X114260Y33071D02*
X115441D01*
X114850Y32480D02*
Y33661D01*
X117287Y19365D02*
X118468D01*
X117877Y18775D02*
Y19956D01*
X114260Y18307D02*
X115441D01*
X114850Y17717D02*
Y18898D01*
X60126Y106890D02*
X61307D01*
X60716Y106299D02*
Y107480D01*
X60126Y98032D02*
X61307D01*
X60716Y97441D02*
Y98622D01*
X60126Y89173D02*
X61307D01*
X60716Y88583D02*
Y89764D01*
X60126Y80315D02*
X61307D01*
X60716Y79724D02*
Y80905D01*
X154614Y89116D02*
X155795D01*
X155205Y88526D02*
Y89707D01*
X153630Y91634D02*
X154811D01*
X154220Y91043D02*
Y92224D01*
X152646Y94144D02*
X153827D01*
X153236Y93553D02*
Y94734D01*
X151661Y96752D02*
X152842D01*
X152252Y96161D02*
Y97342D01*
X150677Y99266D02*
X151858D01*
X151268Y98675D02*
Y99856D01*
X118197Y3543D02*
X119378D01*
X118787Y2953D02*
Y4134D01*
X131976Y3543D02*
X133158D01*
X132567Y2953D02*
Y4134D01*
X123512Y7382D02*
X124693D01*
X124102Y6791D02*
Y7972D01*
X126661Y11516D02*
X127842D01*
X127252Y10925D02*
Y12106D01*
X128039Y53740D02*
X129220D01*
X128630Y53150D02*
Y54331D01*
X126071Y91142D02*
X127252D01*
X126661Y90551D02*
Y91732D01*
X114260Y21260D02*
X115441D01*
X114850Y20669D02*
Y21850D01*
X114260Y24213D02*
X115441D01*
X114850Y23622D02*
Y24803D01*
X114260Y27165D02*
X115441D01*
X114850Y26575D02*
Y27756D01*
X114260Y30118D02*
X115441D01*
X114850Y29528D02*
Y30709D01*
X60126Y115748D02*
X61307D01*
X60716Y115157D02*
Y116339D01*
X74890Y32087D02*
X76071D01*
X75480Y31496D02*
Y32677D01*
X74890Y34055D02*
X76071D01*
X75480Y33465D02*
Y34646D01*
X74890Y30118D02*
X76071D01*
X75480Y29528D02*
Y30709D01*
X70953Y37008D02*
X72134D01*
X71543Y36417D02*
Y37598D01*
X78827Y37008D02*
X80008D01*
X79417Y36417D02*
Y37598D01*
X92606Y22244D02*
X93787D01*
X93197Y21654D02*
Y22835D01*
X72921Y26181D02*
X74102D01*
X73512Y25591D02*
Y26772D01*
X69968Y26181D02*
X71150D01*
X70559Y25591D02*
Y26772D01*
X94575Y37008D02*
X95756D01*
X95165Y36417D02*
Y37598D01*
X120302Y57677D02*
X121483D01*
X120893Y57087D02*
Y58268D01*
M02*
