G04*
G04 #@! TF.GenerationSoftware,Altium Limited,Altium Designer,21.7.1 (17)*
G04*
G04 Layer_Color=16711833*
%FSLAX25Y25*%
%MOIN*%
G70*
G04*
G04 #@! TF.SameCoordinates,7597F7ED-B0B0-46DE-8649-F5B0F68803AD*
G04*
G04*
G04 #@! TF.FilePolarity,Negative*
G04*
G01*
G75*
%ADD38R,0.03800X0.03800*%
G04:AMPARAMS|DCode=39|XSize=63mil|YSize=58mil|CornerRadius=0mil|HoleSize=0mil|Usage=FLASHONLY|Rotation=270.000|XOffset=0mil|YOffset=0mil|HoleType=Round|Shape=Octagon|*
%AMOCTAGOND39*
4,1,8,-0.01450,-0.03150,0.01450,-0.03150,0.02900,-0.01700,0.02900,0.01700,0.01450,0.03150,-0.01450,0.03150,-0.02900,0.01700,-0.02900,-0.01700,-0.01450,-0.03150,0.0*
%
%ADD39OCTAGOND39*%

%ADD40R,0.05800X0.06300*%
G04:AMPARAMS|DCode=41|XSize=63mil|YSize=58mil|CornerRadius=0mil|HoleSize=0mil|Usage=FLASHONLY|Rotation=0.000|XOffset=0mil|YOffset=0mil|HoleType=Round|Shape=Octagon|*
%AMOCTAGOND41*
4,1,8,0.03150,-0.01450,0.03150,0.01450,0.01700,0.02900,-0.01700,0.02900,-0.03150,0.01450,-0.03150,-0.01450,-0.01700,-0.02900,0.01700,-0.02900,0.03150,-0.01450,0.0*
%
%ADD41OCTAGOND41*%

%ADD42O,0.07493X0.02178*%
%ADD43R,0.04343X0.07099*%
%ADD44R,0.02769X0.01784*%
%ADD45R,0.07493X0.02178*%
%ADD46O,0.01682X0.03418*%
%ADD47O,0.03418X0.01682*%
%ADD48R,0.08674X0.08674*%
%ADD49R,0.03162X0.03753*%
%ADD50R,0.06706X0.03162*%
%ADD51R,0.03162X0.06706*%
%ADD52R,0.04800X0.05800*%
%ADD53R,0.04800X0.04800*%
%ADD54R,0.03800X0.03800*%
%ADD55R,0.06300X0.05800*%
%ADD56R,0.08674X0.05524*%
%ADD57R,0.07493X0.07493*%
%ADD58C,0.07493*%
%ADD59C,0.20485*%
%ADD60R,0.07887X0.07887*%
%ADD61C,0.07887*%
D38*
X104023Y33662D02*
D03*
Y28544D02*
D03*
X155204Y78740D02*
D03*
Y83859D02*
D03*
X109929Y33662D02*
D03*
Y28544D02*
D03*
X155205Y56102D02*
D03*
Y61220D02*
D03*
X54811Y28543D02*
D03*
Y33661D02*
D03*
X149299Y61221D02*
D03*
Y56103D02*
D03*
X112882Y12008D02*
D03*
Y6890D02*
D03*
X105992Y83662D02*
D03*
Y88780D02*
D03*
X66622Y28543D02*
D03*
Y33661D02*
D03*
X60717Y28543D02*
D03*
Y33661D02*
D03*
X118787Y12008D02*
D03*
Y6890D02*
D03*
X132567Y12008D02*
D03*
Y6890D02*
D03*
X143394Y23228D02*
D03*
Y28346D02*
D03*
X141426Y41338D02*
D03*
Y46456D02*
D03*
X121740Y41338D02*
D03*
Y46456D02*
D03*
D39*
X103039Y102248D02*
D03*
D40*
Y115748D02*
D03*
D41*
X93057Y89173D02*
D03*
Y106890D02*
D03*
Y98032D02*
D03*
Y80315D02*
D03*
Y115748D02*
D03*
X69435Y89173D02*
D03*
Y98032D02*
D03*
X56919Y5512D02*
D03*
X69435Y106890D02*
D03*
Y80315D02*
D03*
Y115748D02*
D03*
X56919Y14370D02*
D03*
D42*
X145953Y104429D02*
D03*
Y106988D02*
D03*
Y109547D02*
D03*
Y114665D02*
D03*
Y83957D02*
D03*
Y86516D02*
D03*
Y89075D02*
D03*
Y91634D02*
D03*
Y94193D02*
D03*
Y96752D02*
D03*
Y99311D02*
D03*
Y101870D02*
D03*
Y112106D02*
D03*
X115244Y114665D02*
D03*
Y112106D02*
D03*
Y109547D02*
D03*
Y106988D02*
D03*
Y104429D02*
D03*
Y101870D02*
D03*
Y99311D02*
D03*
Y96752D02*
D03*
Y94193D02*
D03*
Y91634D02*
D03*
Y89075D02*
D03*
Y86516D02*
D03*
Y83957D02*
D03*
Y81398D02*
D03*
D43*
X75480Y32087D02*
D03*
D44*
X79417Y29134D02*
D03*
Y31102D02*
D03*
Y35039D02*
D03*
Y33071D02*
D03*
X71543Y35039D02*
D03*
Y33071D02*
D03*
Y31102D02*
D03*
Y29134D02*
D03*
D45*
X145953Y81398D02*
D03*
D46*
X135323Y34675D02*
D03*
X133748D02*
D03*
X132173D02*
D03*
X130598D02*
D03*
X129024D02*
D03*
X127449D02*
D03*
X125874D02*
D03*
Y19656D02*
D03*
X127449D02*
D03*
X129024D02*
D03*
X130598D02*
D03*
X132173D02*
D03*
X133748D02*
D03*
X135323D02*
D03*
D47*
X123089Y31890D02*
D03*
Y30315D02*
D03*
Y28740D02*
D03*
Y27165D02*
D03*
Y25591D02*
D03*
Y24016D02*
D03*
Y22441D02*
D03*
X138108D02*
D03*
Y24016D02*
D03*
Y25591D02*
D03*
Y27165D02*
D03*
Y28740D02*
D03*
Y30315D02*
D03*
Y31890D02*
D03*
D48*
X130598Y27165D02*
D03*
D49*
X127252Y7382D02*
D03*
Y11516D02*
D03*
X124102D02*
D03*
Y7382D02*
D03*
D50*
X86307Y27953D02*
D03*
Y36220D02*
D03*
D51*
X127449Y43898D02*
D03*
X135716D02*
D03*
D52*
X124693Y53740D02*
D03*
X138472Y61614D02*
D03*
D53*
X128393Y61740D02*
D03*
X120893D02*
D03*
X134772Y53614D02*
D03*
X142272D02*
D03*
D54*
X72921Y22244D02*
D03*
X78039D02*
D03*
X61110D02*
D03*
X66228D02*
D03*
X116229Y73426D02*
D03*
X121347D02*
D03*
X89851Y22244D02*
D03*
X84733D02*
D03*
X133158Y73426D02*
D03*
X128040D02*
D03*
X144969D02*
D03*
X139851D02*
D03*
D55*
X79557Y89173D02*
D03*
X55935D02*
D03*
X79557Y106890D02*
D03*
X55935Y98032D02*
D03*
X79557D02*
D03*
X70419Y5512D02*
D03*
X55935Y106890D02*
D03*
Y80315D02*
D03*
Y115748D02*
D03*
X79557Y80315D02*
D03*
Y115748D02*
D03*
X70419Y14370D02*
D03*
D56*
X161110Y31102D02*
D03*
Y9449D02*
D03*
D57*
X102055Y52756D02*
D03*
X43000Y82464D02*
D03*
D58*
X102055Y62598D02*
D03*
X31819Y44272D02*
D03*
X31819Y55177D02*
D03*
Y66083D02*
D03*
X43000Y49713D02*
D03*
Y60630D02*
D03*
Y71547D02*
D03*
Y38795D02*
D03*
X31819Y76988D02*
D03*
D59*
X37409Y109843D02*
D03*
X37409Y11417D02*
D03*
D60*
X69575Y64567D02*
D03*
D61*
Y50787D02*
D03*
M02*
