M48
;Layer_Color=9474304
;FILE_FORMAT=2:5
INCH,LZ
;TYPE=PLATED
T1F00S00C0.01181
T2F00S00C0.03150
T3F00S00C0.03543
T4F00S00C0.03937
T5F00S00C0.12795
%
T01
X0002646Y0002559
Y0005512
X0005598
Y0002559
X0065638Y0004527
Y000748
X0057764Y0022244
Y0025197
X0070559Y0026181
X0073512
X007548Y0030118
Y0032087
Y0034055
X0071543Y0037008
X0079417
X0060716Y0080315
Y0089173
Y0098032
Y010689
X0103039Y0097047
Y009311
X01055Y0095079
X0109929Y0089173
Y008622
X0108945Y0073425
X0105992
X0106976Y0043898
Y0040945
X011485Y0035792
Y0033071
Y0030118
Y0027165
Y0024213
Y002126
Y0018307
X0117877Y0019365
X012863Y0025197
Y0029134
X0132567
X0130598Y0027165
X0132567Y0025197
X0138472Y0020276
Y0017323
Y001437
X0140441Y0012402
X0143394
X0146346
Y0006496
X0143394
X0140441
X0137488Y000748
X013552Y0009449
X0132567Y0003543
X012174
X0118787
X0124102Y0007382
X0127252Y0011516
X0138472Y0036024
X0145362
Y0033071
X0146346Y0042913
Y0045866
Y0052756
X012863Y005374
Y0057677
X0120893
X0120756Y005374
X0131583Y0047835
Y0044882
X0133551Y0068504
X0136504
X0149299Y0073425
X0152252
X0155205Y0089116
X015422Y0091634
X0153236Y0094144
X0152252Y0096752
X0151268Y0099266
X0138472Y0097047
Y0094095
X0135504Y0089189
X0133551Y0087205
Y0084252
X0126661Y0091142
X0123709Y0089173
X012863Y0094095
Y0097047
X0137488Y010187
X0139457Y0104429
X0137587Y0106988
X0095165Y0037008
X009615Y0022244
X0093197
X0060716Y0115748
X0005598
X0002646
Y0118701
X0005598
T02
X0102055Y0052756
Y0062598
T03
X0069575Y0050787
Y0064567
T04
X0031819Y0044272
X0031819Y0055177
Y0066083
X0031819Y0076988
X0043Y0071547
Y006063
Y0049713
Y0038795
Y0082464
T05
X0037409Y0011417
X0037409Y0109843
M30
