G04*
G04 #@! TF.GenerationSoftware,Altium Limited,Altium Designer,21.7.1 (17)*
G04*
G04 Layer_Color=8421504*
%FSLAX25Y25*%
%MOIN*%
G70*
G04*
G04 #@! TF.SameCoordinates,7597F7ED-B0B0-46DE-8649-F5B0F68803AD*
G04*
G04*
G04 #@! TF.FilePolarity,Positive*
G04*
G01*
G75*
%ADD19R,0.03937X0.03937*%
%ADD20R,0.03000X0.03000*%
G04:AMPARAMS|DCode=21|XSize=55mil|YSize=50mil|CornerRadius=0mil|HoleSize=0mil|Usage=FLASHONLY|Rotation=270.000|XOffset=0mil|YOffset=0mil|HoleType=Round|Shape=Octagon|*
%AMOCTAGOND21*
4,1,8,-0.01250,-0.02750,0.01250,-0.02750,0.02500,-0.01500,0.02500,0.01500,0.01250,0.02750,-0.01250,0.02750,-0.02500,0.01500,-0.02500,-0.01500,-0.01250,-0.02750,0.0*
%
%ADD21OCTAGOND21*%

%ADD22R,0.05000X0.05500*%
G04:AMPARAMS|DCode=23|XSize=55mil|YSize=50mil|CornerRadius=0mil|HoleSize=0mil|Usage=FLASHONLY|Rotation=0.000|XOffset=0mil|YOffset=0mil|HoleType=Round|Shape=Octagon|*
%AMOCTAGOND23*
4,1,8,0.02750,-0.01250,0.02750,0.01250,0.01500,0.02500,-0.01500,0.02500,-0.02750,0.01250,-0.02750,-0.01250,-0.01500,-0.02500,0.01500,-0.02500,0.02750,-0.01250,0.0*
%
%ADD23OCTAGOND23*%

%ADD24O,0.06693X0.01378*%
%ADD25R,0.03543X0.06299*%
%ADD26R,0.01968X0.00984*%
%ADD27R,0.06693X0.01378*%
%ADD28O,0.00882X0.02618*%
%ADD29O,0.02618X0.00882*%
%ADD30R,0.02362X0.02953*%
%ADD31R,0.05906X0.02362*%
%ADD32R,0.02362X0.05906*%
%ADD33R,0.04000X0.05000*%
%ADD34R,0.04000X0.04000*%
%ADD35R,0.03000X0.03000*%
%ADD36R,0.05500X0.05000*%
%ADD37R,0.07874X0.04724*%
D19*
X130598Y27165D02*
D03*
D20*
X104023Y33662D02*
D03*
Y28544D02*
D03*
X155204Y78740D02*
D03*
Y83859D02*
D03*
X109929Y33662D02*
D03*
Y28544D02*
D03*
X155205Y56102D02*
D03*
Y61220D02*
D03*
X54811Y28543D02*
D03*
Y33661D02*
D03*
X149299Y61221D02*
D03*
Y56103D02*
D03*
X112882Y12008D02*
D03*
Y6890D02*
D03*
X105992Y83662D02*
D03*
Y88780D02*
D03*
X66622Y28543D02*
D03*
Y33661D02*
D03*
X60717Y28543D02*
D03*
Y33661D02*
D03*
X118787Y12008D02*
D03*
Y6890D02*
D03*
X132567Y12008D02*
D03*
Y6890D02*
D03*
X143394Y23228D02*
D03*
Y28346D02*
D03*
X141426Y41338D02*
D03*
Y46456D02*
D03*
X121740Y41338D02*
D03*
Y46456D02*
D03*
D21*
X103039Y102248D02*
D03*
D22*
Y115748D02*
D03*
D23*
X93057Y89173D02*
D03*
Y106890D02*
D03*
Y98032D02*
D03*
Y80315D02*
D03*
Y115748D02*
D03*
X69435Y89173D02*
D03*
Y98032D02*
D03*
X56919Y5512D02*
D03*
X69435Y106890D02*
D03*
Y80315D02*
D03*
Y115748D02*
D03*
X56919Y14370D02*
D03*
D24*
X145953Y104429D02*
D03*
Y106988D02*
D03*
Y109547D02*
D03*
Y114665D02*
D03*
Y83957D02*
D03*
Y86516D02*
D03*
Y89075D02*
D03*
Y91634D02*
D03*
Y94193D02*
D03*
Y96752D02*
D03*
Y99311D02*
D03*
Y101870D02*
D03*
Y112106D02*
D03*
X115244Y114665D02*
D03*
Y112106D02*
D03*
Y109547D02*
D03*
Y106988D02*
D03*
Y104429D02*
D03*
Y101870D02*
D03*
Y99311D02*
D03*
Y96752D02*
D03*
Y94193D02*
D03*
Y91634D02*
D03*
Y89075D02*
D03*
Y86516D02*
D03*
Y83957D02*
D03*
Y81398D02*
D03*
D25*
X75480Y32087D02*
D03*
D26*
X79417Y29134D02*
D03*
Y31102D02*
D03*
Y35039D02*
D03*
Y33071D02*
D03*
X71543Y35039D02*
D03*
Y33071D02*
D03*
Y31102D02*
D03*
Y29134D02*
D03*
D27*
X145953Y81398D02*
D03*
D28*
X135323Y34675D02*
D03*
X133748D02*
D03*
X132173D02*
D03*
X130598D02*
D03*
X129024D02*
D03*
X127449D02*
D03*
X125874D02*
D03*
Y19656D02*
D03*
X127449D02*
D03*
X129024D02*
D03*
X130598D02*
D03*
X132173D02*
D03*
X133748D02*
D03*
X135323D02*
D03*
D29*
X123089Y31890D02*
D03*
Y30315D02*
D03*
Y28740D02*
D03*
Y27165D02*
D03*
Y25591D02*
D03*
Y24016D02*
D03*
Y22441D02*
D03*
X138108D02*
D03*
Y24016D02*
D03*
Y25591D02*
D03*
Y27165D02*
D03*
Y28740D02*
D03*
Y30315D02*
D03*
Y31890D02*
D03*
D30*
X127252Y7382D02*
D03*
Y11516D02*
D03*
X124102D02*
D03*
Y7382D02*
D03*
D31*
X86307Y27953D02*
D03*
Y36220D02*
D03*
D32*
X127449Y43898D02*
D03*
X135716D02*
D03*
D33*
X124693Y53740D02*
D03*
X138472Y61614D02*
D03*
D34*
X128393Y61740D02*
D03*
X120893D02*
D03*
X134772Y53614D02*
D03*
X142272D02*
D03*
D35*
X72921Y22244D02*
D03*
X78039D02*
D03*
X61110D02*
D03*
X66228D02*
D03*
X116229Y73426D02*
D03*
X121347D02*
D03*
X89851Y22244D02*
D03*
X84733D02*
D03*
X133158Y73426D02*
D03*
X128040D02*
D03*
X144969D02*
D03*
X139851D02*
D03*
D36*
X79557Y89173D02*
D03*
X55935D02*
D03*
X79557Y106890D02*
D03*
X55935Y98032D02*
D03*
X79557D02*
D03*
X70419Y5512D02*
D03*
X55935Y106890D02*
D03*
Y80315D02*
D03*
Y115748D02*
D03*
X79557Y80315D02*
D03*
Y115748D02*
D03*
X70419Y14370D02*
D03*
D37*
X161110Y31102D02*
D03*
Y9449D02*
D03*
M02*
