G04*
G04 #@! TF.GenerationSoftware,Altium Limited,Altium Designer,21.7.1 (17)*
G04*
G04 Layer_Physical_Order=2*
G04 Layer_Color=14186556*
%FSLAX25Y25*%
%MOIN*%
G70*
G04*
G04 #@! TF.SameCoordinates,7597F7ED-B0B0-46DE-8649-F5B0F68803AD*
G04*
G04*
G04 #@! TF.FilePolarity,Positive*
G04*
G01*
G75*
%ADD11C,0.01000*%
%ADD62C,0.00500*%
%ADD66R,0.06693X0.06693*%
%ADD67C,0.06693*%
%ADD68C,0.19685*%
%ADD69R,0.07087X0.07087*%
%ADD70C,0.07087*%
%ADD71C,0.01968*%
G36*
X61505Y116354D02*
X61591Y116279D01*
X61676Y116213D01*
X61760Y116156D01*
X61844Y116108D01*
X61928Y116068D01*
X62012Y116037D01*
X62094Y116016D01*
X62177Y116002D01*
X62259Y115998D01*
Y115498D01*
X62177Y115494D01*
X62094Y115480D01*
X62012Y115459D01*
X61928Y115428D01*
X61844Y115388D01*
X61760Y115340D01*
X61676Y115283D01*
X61591Y115217D01*
X61505Y115142D01*
X61419Y115059D01*
Y116437D01*
X61505Y116354D01*
D02*
G37*
G36*
X61984Y107804D02*
X61929Y107743D01*
X61880Y107675D01*
X61837Y107601D01*
X61800Y107520D01*
X61769Y107433D01*
X61743Y107339D01*
X61724Y107239D01*
X61710Y107132D01*
X61703Y107019D01*
X61701Y106900D01*
X60726Y107874D01*
X60846Y107876D01*
X60959Y107883D01*
X61066Y107897D01*
X61166Y107916D01*
X61260Y107942D01*
X61347Y107973D01*
X61427Y108010D01*
X61502Y108053D01*
X61569Y108102D01*
X61630Y108157D01*
X61984Y107804D01*
D02*
G37*
G36*
X136932Y106253D02*
X136839Y106332D01*
X136657Y106466D01*
X136568Y106521D01*
X136480Y106567D01*
X136394Y106604D01*
X136310Y106634D01*
X136226Y106655D01*
X136145Y106667D01*
X136064Y106671D01*
X136029Y107171D01*
X136112Y107176D01*
X136196Y107190D01*
X136278Y107212D01*
X136360Y107244D01*
X136441Y107285D01*
X136522Y107336D01*
X136602Y107395D01*
X136681Y107463D01*
X136760Y107541D01*
X136838Y107628D01*
X136932Y106253D01*
D02*
G37*
G36*
X138754Y103740D02*
X138668Y103823D01*
X138583Y103898D01*
X138497Y103964D01*
X138413Y104021D01*
X138329Y104069D01*
X138245Y104109D01*
X138162Y104140D01*
X138079Y104162D01*
X137996Y104175D01*
X137914Y104179D01*
Y104679D01*
X137996Y104683D01*
X138079Y104697D01*
X138162Y104719D01*
X138245Y104749D01*
X138329Y104789D01*
X138413Y104837D01*
X138497Y104894D01*
X138583Y104960D01*
X138668Y105035D01*
X138754Y105118D01*
Y103740D01*
D02*
G37*
G36*
X136635Y103083D02*
X136703Y103034D01*
X136777Y102990D01*
X136858Y102953D01*
X136945Y102922D01*
X137039Y102897D01*
X137139Y102877D01*
X137246Y102864D01*
X137359Y102856D01*
X137478Y102854D01*
X136504Y101880D01*
X136502Y102000D01*
X136495Y102113D01*
X136481Y102219D01*
X136462Y102320D01*
X136436Y102413D01*
X136405Y102500D01*
X136368Y102581D01*
X136325Y102655D01*
X136276Y102723D01*
X136221Y102784D01*
X136574Y103138D01*
X136635Y103083D01*
D02*
G37*
G36*
X152535Y100180D02*
X152480Y100119D01*
X152431Y100051D01*
X152388Y99977D01*
X152351Y99896D01*
X152320Y99809D01*
X152294Y99715D01*
X152275Y99615D01*
X152261Y99508D01*
X152254Y99395D01*
X152252Y99275D01*
X151277Y100250D01*
X151397Y100252D01*
X151510Y100259D01*
X151617Y100273D01*
X151717Y100292D01*
X151811Y100318D01*
X151898Y100349D01*
X151979Y100386D01*
X152053Y100429D01*
X152120Y100478D01*
X152182Y100533D01*
X152535Y100180D01*
D02*
G37*
G36*
X61984Y98945D02*
X61929Y98884D01*
X61880Y98817D01*
X61837Y98743D01*
X61800Y98662D01*
X61769Y98575D01*
X61743Y98481D01*
X61724Y98381D01*
X61710Y98274D01*
X61703Y98161D01*
X61701Y98041D01*
X60726Y99016D01*
X60846Y99017D01*
X60959Y99025D01*
X61066Y99039D01*
X61166Y99058D01*
X61260Y99083D01*
X61347Y99115D01*
X61427Y99152D01*
X61502Y99195D01*
X61569Y99244D01*
X61630Y99299D01*
X61984Y98945D01*
D02*
G37*
G36*
X153519Y97666D02*
X153464Y97605D01*
X153416Y97537D01*
X153372Y97463D01*
X153335Y97382D01*
X153304Y97295D01*
X153279Y97202D01*
X153259Y97101D01*
X153245Y96995D01*
X153238Y96881D01*
X153236Y96762D01*
X152262Y97736D01*
X152382Y97738D01*
X152495Y97746D01*
X152601Y97759D01*
X152701Y97778D01*
X152795Y97804D01*
X152882Y97835D01*
X152963Y97872D01*
X153037Y97916D01*
X153105Y97965D01*
X153166Y98019D01*
X153519Y97666D01*
D02*
G37*
G36*
X103828Y97653D02*
X103913Y97578D01*
X103998Y97512D01*
X104083Y97455D01*
X104167Y97407D01*
X104251Y97367D01*
X104334Y97337D01*
X104417Y97315D01*
X104500Y97302D01*
X104582Y97297D01*
Y96797D01*
X104500Y96793D01*
X104417Y96780D01*
X104334Y96758D01*
X104251Y96727D01*
X104167Y96688D01*
X104083Y96639D01*
X103998Y96582D01*
X103913Y96516D01*
X103828Y96442D01*
X103742Y96358D01*
Y97736D01*
X103828Y97653D01*
D02*
G37*
G36*
X154504Y95058D02*
X154449Y94997D01*
X154400Y94929D01*
X154357Y94855D01*
X154320Y94774D01*
X154288Y94687D01*
X154263Y94593D01*
X154243Y94493D01*
X154230Y94386D01*
X154222Y94273D01*
X154220Y94153D01*
X153246Y95128D01*
X153366Y95130D01*
X153479Y95137D01*
X153586Y95151D01*
X153686Y95170D01*
X153779Y95196D01*
X153867Y95227D01*
X153947Y95264D01*
X154021Y95307D01*
X154089Y95356D01*
X154150Y95411D01*
X154504Y95058D01*
D02*
G37*
G36*
X106486Y94949D02*
X106494Y94836D01*
X106507Y94729D01*
X106527Y94629D01*
X106552Y94535D01*
X106583Y94448D01*
X106620Y94368D01*
X106664Y94294D01*
X106713Y94226D01*
X106767Y94165D01*
X106414Y93811D01*
X106353Y93866D01*
X106285Y93915D01*
X106211Y93958D01*
X106130Y93995D01*
X106043Y94027D01*
X105949Y94052D01*
X105849Y94072D01*
X105743Y94085D01*
X105630Y94093D01*
X105510Y94095D01*
X106484Y95069D01*
X106486Y94949D01*
D02*
G37*
G36*
X103828Y93716D02*
X103913Y93641D01*
X103998Y93575D01*
X104083Y93518D01*
X104167Y93470D01*
X104251Y93430D01*
X104334Y93400D01*
X104417Y93378D01*
X104500Y93365D01*
X104582Y93360D01*
Y92860D01*
X104500Y92856D01*
X104417Y92843D01*
X104334Y92821D01*
X104251Y92790D01*
X104167Y92751D01*
X104083Y92702D01*
X103998Y92645D01*
X103913Y92579D01*
X103828Y92505D01*
X103742Y92421D01*
Y93799D01*
X103828Y93716D01*
D02*
G37*
G36*
X155488Y92548D02*
X155433Y92487D01*
X155384Y92419D01*
X155341Y92345D01*
X155304Y92264D01*
X155272Y92177D01*
X155247Y92083D01*
X155228Y91983D01*
X155214Y91877D01*
X155206Y91763D01*
X155205Y91644D01*
X154230Y92618D01*
X154350Y92620D01*
X154463Y92627D01*
X154570Y92641D01*
X154670Y92660D01*
X154764Y92686D01*
X154851Y92717D01*
X154931Y92754D01*
X155006Y92797D01*
X155073Y92846D01*
X155134Y92901D01*
X155488Y92548D01*
D02*
G37*
G36*
X125959Y90453D02*
X125873Y90536D01*
X125787Y90611D01*
X125702Y90677D01*
X125618Y90734D01*
X125533Y90782D01*
X125450Y90821D01*
X125366Y90852D01*
X125284Y90874D01*
X125201Y90887D01*
X125119Y90892D01*
Y91392D01*
X125201Y91396D01*
X125284Y91409D01*
X125366Y91431D01*
X125450Y91462D01*
X125533Y91501D01*
X125618Y91550D01*
X125702Y91607D01*
X125787Y91673D01*
X125873Y91747D01*
X125959Y91831D01*
Y90453D01*
D02*
G37*
G36*
X61984Y90087D02*
X61929Y90026D01*
X61880Y89958D01*
X61837Y89884D01*
X61800Y89804D01*
X61769Y89716D01*
X61743Y89623D01*
X61724Y89523D01*
X61710Y89416D01*
X61703Y89303D01*
X61701Y89183D01*
X60726Y90157D01*
X60846Y90159D01*
X60959Y90167D01*
X61066Y90180D01*
X61166Y90200D01*
X61260Y90225D01*
X61347Y90256D01*
X61427Y90294D01*
X61502Y90337D01*
X61569Y90386D01*
X61630Y90441D01*
X61984Y90087D01*
D02*
G37*
G36*
X156472Y90030D02*
X156417Y89969D01*
X156368Y89901D01*
X156325Y89827D01*
X156288Y89746D01*
X156257Y89659D01*
X156231Y89566D01*
X156212Y89465D01*
X156198Y89359D01*
X156191Y89246D01*
X156189Y89126D01*
X155215Y90100D01*
X155334Y90102D01*
X155447Y90110D01*
X155554Y90123D01*
X155654Y90143D01*
X155748Y90168D01*
X155835Y90199D01*
X155916Y90237D01*
X155990Y90280D01*
X156058Y90329D01*
X156119Y90384D01*
X156472Y90030D01*
D02*
G37*
G36*
X134801Y88500D02*
X134715Y88583D01*
X134630Y88658D01*
X134545Y88724D01*
X134460Y88781D01*
X134376Y88829D01*
X134292Y88869D01*
X134209Y88899D01*
X134126Y88921D01*
X134044Y88935D01*
X133961Y88939D01*
Y89439D01*
X134044Y89443D01*
X134126Y89456D01*
X134209Y89478D01*
X134292Y89509D01*
X134376Y89549D01*
X134460Y89597D01*
X134545Y89654D01*
X134630Y89720D01*
X134715Y89794D01*
X134801Y89878D01*
Y88500D01*
D02*
G37*
G36*
X123006Y88484D02*
X122920Y88568D01*
X122835Y88642D01*
X122749Y88708D01*
X122665Y88765D01*
X122581Y88814D01*
X122497Y88853D01*
X122414Y88884D01*
X122331Y88906D01*
X122248Y88919D01*
X122166Y88923D01*
Y89423D01*
X122248Y89428D01*
X122331Y89441D01*
X122414Y89463D01*
X122497Y89493D01*
X122581Y89533D01*
X122665Y89581D01*
X122749Y89638D01*
X122835Y89704D01*
X122920Y89779D01*
X123006Y89862D01*
Y88484D01*
D02*
G37*
G36*
X132848Y86516D02*
X132762Y86599D01*
X132677Y86674D01*
X132592Y86740D01*
X132507Y86797D01*
X132423Y86845D01*
X132340Y86884D01*
X132256Y86915D01*
X132173Y86937D01*
X132091Y86950D01*
X132009Y86955D01*
Y87455D01*
X132091Y87459D01*
X132173Y87472D01*
X132256Y87494D01*
X132340Y87525D01*
X132423Y87564D01*
X132507Y87613D01*
X132592Y87670D01*
X132677Y87736D01*
X132762Y87810D01*
X132848Y87894D01*
Y86516D01*
D02*
G37*
G36*
Y83563D02*
X132762Y83646D01*
X132677Y83721D01*
X132592Y83787D01*
X132507Y83844D01*
X132423Y83892D01*
X132340Y83932D01*
X132256Y83962D01*
X132173Y83984D01*
X132091Y83998D01*
X132009Y84002D01*
Y84502D01*
X132091Y84506D01*
X132173Y84519D01*
X132256Y84541D01*
X132340Y84572D01*
X132423Y84612D01*
X132507Y84660D01*
X132592Y84717D01*
X132677Y84783D01*
X132762Y84857D01*
X132848Y84941D01*
Y83563D01*
D02*
G37*
G36*
X61984Y81229D02*
X61929Y81168D01*
X61880Y81100D01*
X61837Y81026D01*
X61800Y80945D01*
X61769Y80858D01*
X61743Y80765D01*
X61724Y80664D01*
X61710Y80558D01*
X61703Y80444D01*
X61701Y80325D01*
X60726Y81299D01*
X60846Y81301D01*
X60959Y81309D01*
X61066Y81322D01*
X61166Y81341D01*
X61260Y81367D01*
X61347Y81398D01*
X61427Y81435D01*
X61502Y81479D01*
X61569Y81528D01*
X61630Y81582D01*
X61984Y81229D01*
D02*
G37*
G36*
X34607Y68028D02*
X35666Y67086D01*
X35973Y66856D01*
X36257Y66667D01*
X36518Y66521D01*
X36756Y66416D01*
X36972Y66354D01*
X37164Y66333D01*
Y65833D01*
X36972Y65812D01*
X36756Y65749D01*
X36518Y65644D01*
X36257Y65498D01*
X35973Y65310D01*
X35666Y65079D01*
X34983Y64493D01*
X34209Y63740D01*
Y68425D01*
X34607Y68028D01*
D02*
G37*
G36*
X127927Y56988D02*
X127886Y57024D01*
X127838Y57056D01*
X127783Y57085D01*
X127720Y57109D01*
X127650Y57130D01*
X127573Y57147D01*
X127489Y57160D01*
X127397Y57170D01*
X127192Y57177D01*
Y58177D01*
X127298Y58179D01*
X127489Y58194D01*
X127573Y58207D01*
X127650Y58224D01*
X127720Y58245D01*
X127783Y58270D01*
X127838Y58298D01*
X127886Y58330D01*
X127927Y58366D01*
Y56988D01*
D02*
G37*
G36*
X121636Y58330D02*
X121685Y58298D01*
X121740Y58270D01*
X121802Y58245D01*
X121872Y58224D01*
X121950Y58207D01*
X122034Y58194D01*
X122126Y58185D01*
X122331Y58177D01*
Y57177D01*
X122225Y57175D01*
X122034Y57160D01*
X121950Y57147D01*
X121872Y57130D01*
X121802Y57109D01*
X121740Y57085D01*
X121685Y57056D01*
X121636Y57024D01*
X121596Y56988D01*
Y58366D01*
X121636Y58330D01*
D02*
G37*
G36*
X127927Y53051D02*
X127886Y53087D01*
X127838Y53119D01*
X127783Y53148D01*
X127720Y53172D01*
X127650Y53193D01*
X127573Y53210D01*
X127489Y53223D01*
X127397Y53233D01*
X127192Y53240D01*
Y54240D01*
X127298Y54242D01*
X127489Y54257D01*
X127573Y54270D01*
X127650Y54287D01*
X127720Y54308D01*
X127783Y54333D01*
X127838Y54361D01*
X127886Y54393D01*
X127927Y54429D01*
Y53051D01*
D02*
G37*
G36*
X121500Y54393D02*
X121547Y54361D01*
X121603Y54333D01*
X121665Y54308D01*
X121735Y54287D01*
X121812Y54270D01*
X121897Y54257D01*
X121989Y54248D01*
X122194Y54240D01*
Y53240D01*
X122088Y53238D01*
X121897Y53223D01*
X121812Y53210D01*
X121735Y53193D01*
X121665Y53172D01*
X121603Y53148D01*
X121547Y53119D01*
X121500Y53087D01*
X121459Y53051D01*
Y54429D01*
X121500Y54393D01*
D02*
G37*
G36*
X39548Y53548D02*
X39745Y53440D01*
X39987Y53345D01*
X40275Y53264D01*
X40609Y53197D01*
X40989Y53142D01*
X41886Y53074D01*
X42966Y53059D01*
X39654Y49746D01*
X39653Y50309D01*
X39570Y51723D01*
X39516Y52103D01*
X39448Y52437D01*
X39367Y52725D01*
X39273Y52968D01*
X39165Y53164D01*
X39044Y53315D01*
X39397Y53669D01*
X39548Y53548D01*
D02*
G37*
G36*
X28367Y48107D02*
X28563Y47999D01*
X28806Y47905D01*
X29094Y47823D01*
X29428Y47756D01*
X29808Y47701D01*
X30705Y47633D01*
X31785Y47618D01*
X28473Y44305D01*
X28472Y44868D01*
X28389Y46283D01*
X28335Y46662D01*
X28267Y46996D01*
X28186Y47285D01*
X28092Y47527D01*
X27984Y47724D01*
X27863Y47874D01*
X28216Y48228D01*
X28367Y48107D01*
D02*
G37*
G36*
X94462Y36319D02*
X94422Y36355D01*
X94374Y36387D01*
X94318Y36415D01*
X94256Y36440D01*
X94186Y36461D01*
X94109Y36478D01*
X94024Y36491D01*
X93932Y36500D01*
X93727Y36508D01*
Y37508D01*
X93833Y37510D01*
X94024Y37525D01*
X94109Y37538D01*
X94186Y37555D01*
X94256Y37576D01*
X94318Y37600D01*
X94374Y37629D01*
X94422Y37661D01*
X94462Y37697D01*
Y36319D01*
D02*
G37*
G36*
X80161Y37661D02*
X80209Y37629D01*
X80264Y37600D01*
X80327Y37576D01*
X80397Y37555D01*
X80474Y37538D01*
X80558Y37525D01*
X80650Y37515D01*
X80856Y37508D01*
Y36508D01*
X80749Y36506D01*
X80558Y36491D01*
X80474Y36478D01*
X80397Y36461D01*
X80327Y36440D01*
X80264Y36415D01*
X80209Y36387D01*
X80161Y36355D01*
X80120Y36319D01*
Y37697D01*
X80161Y37661D01*
D02*
G37*
G36*
X113998Y37005D02*
X114065Y36956D01*
X114139Y36913D01*
X114220Y36875D01*
X114307Y36844D01*
X114401Y36819D01*
X114501Y36799D01*
X114608Y36786D01*
X114721Y36778D01*
X114840Y36776D01*
X113866Y35802D01*
X113865Y35922D01*
X113857Y36035D01*
X113843Y36141D01*
X113824Y36242D01*
X113798Y36335D01*
X113767Y36423D01*
X113730Y36503D01*
X113687Y36577D01*
X113638Y36645D01*
X113583Y36706D01*
X113936Y37060D01*
X113998Y37005D01*
D02*
G37*
G36*
X116118Y33985D02*
X116063Y33924D01*
X116014Y33856D01*
X115971Y33782D01*
X115934Y33701D01*
X115902Y33614D01*
X115877Y33520D01*
X115858Y33420D01*
X115844Y33314D01*
X115836Y33200D01*
X115835Y33081D01*
X114860Y34055D01*
X114980Y34057D01*
X115093Y34064D01*
X115200Y34078D01*
X115300Y34097D01*
X115394Y34123D01*
X115481Y34154D01*
X115561Y34191D01*
X115636Y34234D01*
X115703Y34283D01*
X115764Y34338D01*
X116118Y33985D01*
D02*
G37*
G36*
Y31032D02*
X116063Y30971D01*
X116014Y30903D01*
X115971Y30829D01*
X115934Y30748D01*
X115902Y30661D01*
X115877Y30568D01*
X115858Y30468D01*
X115844Y30361D01*
X115836Y30248D01*
X115835Y30128D01*
X114860Y31102D01*
X114980Y31104D01*
X115093Y31112D01*
X115200Y31125D01*
X115300Y31145D01*
X115394Y31170D01*
X115481Y31201D01*
X115561Y31238D01*
X115636Y31282D01*
X115703Y31331D01*
X115764Y31386D01*
X116118Y31032D01*
D02*
G37*
G36*
Y28079D02*
X116063Y28018D01*
X116014Y27951D01*
X115971Y27876D01*
X115934Y27796D01*
X115902Y27709D01*
X115877Y27615D01*
X115858Y27515D01*
X115844Y27408D01*
X115836Y27295D01*
X115835Y27175D01*
X114860Y28150D01*
X114980Y28151D01*
X115093Y28159D01*
X115200Y28172D01*
X115300Y28192D01*
X115394Y28217D01*
X115481Y28249D01*
X115561Y28286D01*
X115636Y28329D01*
X115703Y28378D01*
X115764Y28433D01*
X116118Y28079D01*
D02*
G37*
G36*
Y25126D02*
X116063Y25065D01*
X116014Y24998D01*
X115971Y24924D01*
X115934Y24843D01*
X115902Y24756D01*
X115877Y24662D01*
X115858Y24562D01*
X115844Y24455D01*
X115836Y24342D01*
X115835Y24222D01*
X114860Y25197D01*
X114980Y25199D01*
X115093Y25206D01*
X115200Y25220D01*
X115300Y25239D01*
X115394Y25264D01*
X115481Y25296D01*
X115561Y25333D01*
X115636Y25376D01*
X115703Y25425D01*
X115764Y25480D01*
X116118Y25126D01*
D02*
G37*
G36*
X113998Y22472D02*
X114065Y22423D01*
X114139Y22380D01*
X114220Y22343D01*
X114307Y22312D01*
X114401Y22286D01*
X114501Y22267D01*
X114608Y22253D01*
X114721Y22246D01*
X114840Y22244D01*
X113866Y21270D01*
X113865Y21389D01*
X113857Y21502D01*
X113843Y21609D01*
X113824Y21709D01*
X113798Y21803D01*
X113767Y21890D01*
X113730Y21971D01*
X113687Y22045D01*
X113638Y22113D01*
X113583Y22174D01*
X113936Y22527D01*
X113998Y22472D01*
D02*
G37*
G36*
X118132Y20826D02*
X118145Y20743D01*
X118167Y20661D01*
X118198Y20577D01*
X118237Y20493D01*
X118285Y20409D01*
X118342Y20325D01*
X118408Y20240D01*
X118483Y20154D01*
X118566Y20068D01*
X117188D01*
X117272Y20154D01*
X117346Y20240D01*
X117412Y20325D01*
X117469Y20409D01*
X117518Y20493D01*
X117557Y20577D01*
X117588Y20661D01*
X117610Y20743D01*
X117623Y20826D01*
X117627Y20908D01*
X118127D01*
X118132Y20826D01*
D02*
G37*
G36*
X113998Y19520D02*
X114065Y19471D01*
X114139Y19428D01*
X114220Y19390D01*
X114307Y19359D01*
X114401Y19334D01*
X114501Y19314D01*
X114608Y19301D01*
X114721Y19293D01*
X114840Y19291D01*
X113866Y18317D01*
X113865Y18437D01*
X113857Y18550D01*
X113843Y18656D01*
X113824Y18757D01*
X113798Y18850D01*
X113767Y18937D01*
X113730Y19018D01*
X113687Y19092D01*
X113638Y19160D01*
X113583Y19221D01*
X113936Y19575D01*
X113998Y19520D01*
D02*
G37*
D11*
X120756Y53740D02*
X128630D01*
X120893Y57677D02*
X128630D01*
X79417Y37008D02*
X95165D01*
D62*
X154928Y116455D02*
G03*
X154220Y116748I-707J-707D01*
G01*
X154928Y116455D02*
G03*
X154220Y116748I-707J-707D01*
G01*
X159859Y115748D02*
G03*
X155205Y120403I-4655J0D01*
G01*
X159173Y111795D02*
G03*
X158880Y112502I-1000J0D01*
G01*
X159173Y111795D02*
G03*
X158880Y112502I-1000J0D01*
G01*
X150746Y97612D02*
G03*
X151779Y95083I1506J-860D01*
G01*
X151779Y95083D02*
G03*
X152713Y92490I1457J-940D01*
G01*
X151190Y100998D02*
G03*
X150746Y97612I77J-1733D01*
G01*
X158880Y91378D02*
G03*
X159173Y92085I-707J707D01*
G01*
X158880Y91378D02*
G03*
X159173Y92085I-707J707D01*
G01*
X152713Y92490D02*
G03*
X153700Y89979I1508J-857D01*
G01*
X139090Y106124D02*
G03*
X139321Y106988I-1504J864D01*
G01*
D02*
G03*
X136333Y108186I-1734J0D01*
G01*
X138975Y102763D02*
G03*
X141191Y104429I482J1666D01*
G01*
D02*
G03*
X139090Y106124I-1734J0D01*
G01*
X139222Y101870D02*
G03*
X138975Y102763I-1734J0D01*
G01*
X135756Y101793D02*
G03*
X139222Y101870I1733J77D01*
G01*
X128396Y91142D02*
G03*
X125491Y92422I-1734J0D01*
G01*
X137238Y89189D02*
G03*
X134334Y90469I-1734J0D01*
G01*
X130614Y90189D02*
G03*
X129907Y89896I0J-1000D01*
G01*
X130614Y90189D02*
G03*
X129907Y89896I0J-1000D01*
G01*
X125491Y89862D02*
G03*
X128396Y91142I1170J1280D01*
G01*
X125443Y89173D02*
G03*
X125169Y90108I-1734J0D01*
G01*
X120756Y92142D02*
G03*
X120049Y91849I0J-1000D01*
G01*
X120756Y92142D02*
G03*
X120049Y91849I0J-1000D01*
G01*
X108961Y95571D02*
G03*
X108668Y96278I-1000J0D01*
G01*
X108961Y95571D02*
G03*
X108668Y96278I-1000J0D01*
G01*
X80557Y107921D02*
G03*
X79850Y107628I0J-1000D01*
G01*
X80557Y107921D02*
G03*
X79850Y107628I0J-1000D01*
G01*
X107191Y97754D02*
G03*
X106484Y98047I-707J-707D01*
G01*
X104210Y98327D02*
G03*
X103817Y95497I-1170J-1280D01*
G01*
X107191Y97754D02*
G03*
X106484Y98047I-707J-707D01*
G01*
X103817Y94660D02*
G03*
X104210Y91830I-778J-1550D01*
G01*
X103817Y95497D02*
G03*
X103817Y94660I1683J-418D01*
G01*
X153701Y89979D02*
G03*
X156937Y89039I1504J-863D01*
G01*
X135265Y87471D02*
G03*
X137238Y89189I239J1718D01*
G01*
X134461Y85728D02*
G03*
X135285Y87205I-910J1476D01*
G01*
Y84252D02*
G03*
X134461Y85728I-1734J0D01*
G01*
X132381Y82972D02*
G03*
X135285Y84252I1170J1280D01*
G01*
X129891Y83545D02*
G03*
X130598Y83252I707J707D01*
G01*
X129891Y83545D02*
G03*
X130598Y83252I707J707D01*
G01*
X155205Y42196D02*
G03*
X159859Y46850I0J4655D01*
G01*
X155205Y42196D02*
G03*
X148048Y35039I0J-7156D01*
G01*
X127479Y52443D02*
G03*
X130364Y53740I1151J1297D01*
G01*
X127479Y56380D02*
G03*
X130364Y57677I1151J1297D01*
G01*
D02*
G03*
X127476Y58972I-1734J0D01*
G01*
X130364Y53740D02*
G03*
X127476Y55035I-1734J0D01*
G01*
X125147Y88205D02*
G03*
X125443Y89173I-1439J969D01*
G01*
X113690Y85491D02*
G03*
X113398Y84783I707J-707D01*
G01*
X113690Y85491D02*
G03*
X113398Y84783I707J-707D01*
G01*
X122044Y58974D02*
G03*
X119398Y58556I-1151J-1297D01*
G01*
Y56799D02*
G03*
X122046Y56382I1495J879D01*
G01*
X104961Y84408D02*
G03*
X105254Y83701I1000J0D01*
G01*
X104961Y84408D02*
G03*
X105254Y83701I1000J0D01*
G01*
X119398Y52662D02*
G03*
X121909Y52445I1358J1078D01*
G01*
X121907Y55037D02*
G03*
X119398Y54818I-1151J-1297D01*
G01*
X121526Y26521D02*
G03*
X121819Y27228I-707J707D01*
G01*
X121526Y26521D02*
G03*
X121819Y27228I-707J707D01*
G01*
Y40328D02*
G03*
X121526Y41035I-1000J0D01*
G01*
X121819Y40328D02*
G03*
X121526Y41035I-1000J0D01*
G01*
X119612Y19365D02*
G03*
X119157Y20536I-1734J0D01*
G01*
X116582Y18212D02*
G03*
X119612Y19365I1295J1153D01*
G01*
X110398Y21760D02*
G03*
X110690Y21053I1000J0D01*
G01*
X110398Y21760D02*
G03*
X110690Y21053I1000J0D01*
G01*
X113118Y18230D02*
G03*
X116582Y18212I1733J77D01*
G01*
X96900Y37008D02*
G03*
X94012Y38303I-1734J0D01*
G01*
X94012Y35713D02*
G03*
X96900Y37008I1154J1295D01*
G01*
X80571Y38303D02*
G03*
X80571Y35713I-1154J-1295D01*
G01*
X60639Y108622D02*
G03*
X62449Y106812I77J-1733D01*
G01*
X73773Y101551D02*
G03*
X73480Y100844I707J-707D01*
G01*
X73773Y101551D02*
G03*
X73480Y100844I707J-707D01*
G01*
X66345Y84529D02*
G03*
X66638Y85236I-707J707D01*
G01*
X66345Y84529D02*
G03*
X66638Y85236I-707J707D01*
G01*
X77187Y82146D02*
G03*
X77480Y82854I-707J707D01*
G01*
X77187Y82146D02*
G03*
X77480Y82854I-707J707D01*
G01*
X60639Y82047D02*
G03*
X62449Y80238I77J-1733D01*
G01*
X61887Y117028D02*
G03*
X61887Y114468I-1170J-1280D01*
G01*
X60639Y90906D02*
G03*
X62449Y89096I77J-1733D01*
G01*
X60639Y99764D02*
G03*
X62449Y97954I77J-1733D01*
G01*
X35833Y72164D02*
G03*
X35126Y72457I-707J-707D01*
G01*
X35833Y72164D02*
G03*
X35126Y72457I-707J-707D01*
G01*
X45186Y68083D02*
G03*
X47096Y71547I-2186J3465D01*
G01*
D02*
G03*
X40814Y68083I-4096J0D01*
G01*
X58710Y64083D02*
G03*
X59417Y64376I0J1000D01*
G01*
X58710Y64083D02*
G03*
X59417Y64376I0J1000D01*
G01*
X35915Y76988D02*
G03*
X35915Y76988I-4096J0D01*
G01*
X29221Y72457D02*
G03*
X28513Y72164I0J-1000D01*
G01*
X29221Y72457D02*
G03*
X28513Y72164I0J-1000D01*
G01*
X25561Y69211D02*
G03*
X25268Y68504I707J-707D01*
G01*
X25561Y69211D02*
G03*
X25268Y68504I707J-707D01*
G01*
X47096Y60630D02*
G03*
X45204Y64083I-4096J0D01*
G01*
X40796D02*
G03*
X47096Y60630I2204J-3453D01*
G01*
Y49713D02*
G03*
X43046Y53809I-4096J0D01*
G01*
X47096Y38795D02*
G03*
X47096Y38795I-4096J0D01*
G01*
X38904Y49672D02*
G03*
X47096Y49713I4096J41D01*
G01*
X36387Y63305D02*
G03*
X36094Y62598I707J-707D01*
G01*
X36387Y63305D02*
G03*
X36094Y62598I707J-707D01*
G01*
X34686Y69008D02*
G03*
X34683Y63154I-2867J-2926D01*
G01*
X35915Y55177D02*
G03*
X35915Y55177I-4096J0D01*
G01*
X36094Y55618D02*
G03*
X36387Y54911I1000J0D01*
G01*
X36094Y55618D02*
G03*
X36387Y54911I1000J0D01*
G01*
X25268Y49823D02*
G03*
X25561Y49116I1000J0D01*
G01*
X25268Y49823D02*
G03*
X25561Y49116I1000J0D01*
G01*
X35915Y44272D02*
G03*
X31865Y48368I-4096J0D01*
G01*
X27723Y44230D02*
G03*
X35915Y44272I4096J41D01*
G01*
X151931Y116748D02*
X155571Y120388D01*
X150517Y116748D02*
X154172Y120404D01*
X155710Y120375D02*
X159832Y116253D01*
X149102Y116748D02*
X152758Y120404D01*
X148611D02*
X152266Y116748D01*
X150025Y120404D02*
X153681Y116748D01*
X158134Y119365D02*
X158822Y118678D01*
X154658Y116647D02*
X157693Y119682D01*
X155404Y115979D02*
X158480Y119055D01*
X153345Y116748D02*
X156739Y120142D01*
X142954Y120404D02*
X146609Y116748D01*
X142031D02*
X145687Y120404D01*
X143446Y116748D02*
X147101Y120404D01*
X140617Y116748D02*
X144273Y120404D01*
X140126D02*
X143781Y116748D01*
X141540Y120404D02*
X145195Y116748D01*
X147196Y120404D02*
X150852Y116748D01*
X146274D02*
X149929Y120404D01*
X147688Y116748D02*
X151344Y120404D01*
X144860Y116748D02*
X148515Y120404D01*
X144368D02*
X148024Y116748D01*
X145782Y120404D02*
X149438Y116748D01*
X156818Y114564D02*
X159583Y117329D01*
X157525Y113857D02*
X159840Y116172D01*
X152853Y120404D02*
X159860Y113397D01*
X154268Y120404D02*
X159860Y114811D01*
X151439Y120404D02*
X159860Y111982D01*
X159173Y111255D02*
X159860Y110568D01*
X159173Y111263D02*
X159860Y111950D01*
X159173Y92085D02*
Y111795D01*
X158937Y112441D02*
X159860Y113364D01*
X158232Y113150D02*
X159860Y114778D01*
X156111Y115271D02*
X159114Y118274D01*
X154928Y116455D02*
X158880Y112502D01*
X141296Y110748D02*
X151057Y100987D01*
X139880Y106111D02*
X144517Y110748D01*
X139882D02*
X150090Y100539D01*
X149781Y110748D02*
X153173Y107356D01*
X152025Y110748D02*
X153173Y109600D01*
X148367Y110748D02*
X153173Y105942D01*
X146953Y110748D02*
X153173Y104527D01*
X145538Y110748D02*
X153173Y103113D01*
X134469Y120404D02*
X138124Y116748D01*
X133546D02*
X137202Y120404D01*
X134960Y116748D02*
X138616Y120404D01*
X132132Y116748D02*
X135787Y120404D01*
X130718Y116748D02*
X134373Y120404D01*
X133054D02*
X136710Y116748D01*
X138711Y120404D02*
X142367Y116748D01*
X137789D02*
X141444Y120404D01*
X139203Y116748D02*
X142859Y120404D01*
X136374Y116748D02*
X140030Y120404D01*
X135883D02*
X139538Y116748D01*
X137297Y120404D02*
X140953Y116748D01*
X125983Y120404D02*
X129639Y116748D01*
X125061D02*
X128716Y120404D01*
X126475Y116748D02*
X130131Y120404D01*
X123647Y116748D02*
X127302Y120404D01*
X123155D02*
X126811Y116748D01*
X124569Y120404D02*
X128225Y116748D01*
X129304D02*
X132959Y120404D01*
X128812D02*
X132467Y116748D01*
X130226Y120404D02*
X133881Y116748D01*
X127398Y120404D02*
X131053Y116748D01*
X127889D02*
X131545Y120404D01*
X136063Y107951D02*
X138860Y110748D01*
X135639D02*
X137666Y108721D01*
X134619Y107921D02*
X137446Y110748D01*
X132810D02*
X135637Y107921D01*
X131640Y120404D02*
X135296Y116748D01*
X133205Y107921D02*
X136031Y110748D01*
X138953Y100942D02*
X148759Y110748D01*
X139321Y106966D02*
X143102Y110748D01*
X138467D02*
X149574Y99641D01*
X137053Y110748D02*
X150582Y97219D01*
X138153Y108627D02*
X140274Y110748D01*
X131029Y90189D02*
X151588Y110748D01*
X126134Y107921D02*
X128960Y110748D01*
X125739D02*
X128566Y107921D01*
X127154Y110748D02*
X129980Y107921D01*
X124325Y110748D02*
X127152Y107921D01*
X123305D02*
X126132Y110748D01*
X124719Y107921D02*
X127546Y110748D01*
X129982D02*
X132809Y107921D01*
X128962D02*
X131789Y110748D01*
X130376Y107921D02*
X133203Y110748D01*
X127548Y107921D02*
X130375Y110748D01*
X128568D02*
X131395Y107921D01*
X159173Y104191D02*
X159860Y104878D01*
X159173Y105598D02*
X159860Y104911D01*
X159173Y104184D02*
X159860Y103497D01*
X159173Y107013D02*
X159860Y106326D01*
X159173Y107020D02*
X159860Y107707D01*
X159173Y105606D02*
X159860Y106293D01*
X159173Y99949D02*
X159860Y100636D01*
X159173Y101356D02*
X159860Y100669D01*
X159173Y99942D02*
X159860Y99255D01*
X159173Y102770D02*
X159860Y102083D01*
X159173Y102777D02*
X159860Y103464D01*
X159173Y101363D02*
X159860Y102050D01*
X159173Y109848D02*
X159860Y110535D01*
X151195Y110748D02*
X153173Y108770D01*
X144124Y110748D02*
X152730Y102142D01*
X141184Y104587D02*
X147345Y110748D01*
X140758Y105575D02*
X145931Y110748D01*
X142710D02*
X152023Y101435D01*
X159173Y108434D02*
X159860Y109121D01*
X159173Y109841D02*
X159860Y109154D01*
X159173Y108427D02*
X159860Y107740D01*
X153173Y102585D02*
Y109600D01*
X151718Y101130D02*
X153173Y102585D01*
X159173Y95699D02*
X159860Y95012D01*
X159173Y95706D02*
X159860Y96393D01*
X159173Y94292D02*
X159860Y94979D01*
X159173Y97120D02*
X159860Y97807D01*
X159173Y98527D02*
X159860Y97840D01*
X159173Y97113D02*
X159860Y96426D01*
X159173Y92878D02*
X159860Y93565D01*
X159173Y94285D02*
X159860Y93598D01*
X159173Y92870D02*
X159860Y92184D01*
X158359Y90856D02*
X159860Y89355D01*
X159041Y91588D02*
X159860Y90769D01*
X156957Y89248D02*
X159860Y92150D01*
X159173Y98535D02*
X159860Y99222D01*
X141099Y103873D02*
X151798Y93175D01*
X140508Y103050D02*
X152641Y90917D01*
X157069Y89566D02*
X158880Y91378D01*
X152268Y92705D02*
X152635Y92337D01*
X138972Y108032D02*
X141688Y110748D01*
X139319Y107068D02*
X151618Y94769D01*
X134225Y110748D02*
X136575Y108397D01*
X80557Y107921D02*
X135928D01*
X127708Y92525D02*
X136064Y100881D01*
X128302Y91705D02*
X136853Y100256D01*
X131790Y107921D02*
X134617Y110748D01*
X131396D02*
X134223Y107921D01*
X134023Y103921D02*
X135624Y102320D01*
X81800Y103921D02*
X134023D01*
X115596D02*
X126641Y92876D01*
X121668Y92142D02*
X133447Y103921D01*
X126645Y92876D02*
X135738Y101969D01*
X133980Y103921D02*
X135700Y102202D01*
X123082Y92142D02*
X134442Y103502D01*
X124496Y92142D02*
X135149Y102795D01*
X136818Y90321D02*
X153173Y106677D01*
X135948Y90865D02*
X153173Y108091D01*
X137233Y89322D02*
X153173Y105262D01*
X132443Y90189D02*
X152514Y110260D01*
X119838Y103921D02*
X133571Y90189D01*
X133857D02*
X153173Y109505D01*
X130614Y90189D02*
X133867D01*
X139449Y102695D02*
X153551Y88593D01*
X122667Y103921D02*
X135673Y90915D01*
X121253Y103921D02*
X134542Y90632D01*
X126216Y88205D02*
X138416Y100405D01*
X128395Y91121D02*
X129764Y89753D01*
X118424Y103921D02*
X132156Y90189D01*
X117010Y103921D02*
X130742Y90189D01*
X128028Y90074D02*
X129057Y89046D01*
X125404Y88807D02*
X126098Y89501D01*
X127196Y89492D02*
X128350Y88339D01*
X125147Y88205D02*
X128216D01*
X125175Y90100D02*
X127070Y88205D01*
X117498Y120404D02*
X121154Y116748D01*
X116576D02*
X120231Y120404D01*
X117990Y116748D02*
X121645Y120404D01*
X106184D02*
X109840Y116748D01*
X105262D02*
X108917Y120404D01*
X106676Y116748D02*
X110332Y120404D01*
X121741D02*
X125396Y116748D01*
X120818D02*
X124474Y120404D01*
X122232Y116748D02*
X125888Y120404D01*
X119404Y116748D02*
X123059Y120404D01*
X118912D02*
X122568Y116748D01*
X120326Y120404D02*
X123982Y116748D01*
X99605D02*
X103261Y120404D01*
X99113D02*
X102769Y116748D01*
X100528Y120404D02*
X104183Y116748D01*
X97699Y120404D02*
X101355Y116748D01*
X96777D02*
X100432Y120404D01*
X98191Y116748D02*
X101846Y120404D01*
X103848Y116748D02*
X107503Y120404D01*
X103356D02*
X107011Y116748D01*
X104770Y120404D02*
X108426Y116748D01*
X101942Y120404D02*
X105597Y116748D01*
X101019D02*
X104675Y120404D01*
X102434Y116748D02*
X106089Y120404D01*
X111841D02*
X115497Y116748D01*
X110919D02*
X114574Y120404D01*
X112333Y116748D02*
X115989Y120404D01*
X109504Y116748D02*
X113160Y120404D01*
X109013D02*
X112668Y116748D01*
X110427Y120404D02*
X114083Y116748D01*
X116084Y120404D02*
X119739Y116748D01*
X115161D02*
X118817Y120404D01*
X116576Y116748D02*
X120231Y120404D01*
X113747Y116748D02*
X117403Y120404D01*
X113256D02*
X116911Y116748D01*
X114670Y120404D02*
X118325Y116748D01*
X108090D02*
X111746Y120404D01*
X107599D02*
X111254Y116748D01*
X98869Y110748D02*
X101696Y107921D01*
X97455Y110748D02*
X100282Y107921D01*
X96435D02*
X99262Y110748D01*
X97849Y107921D02*
X100676Y110748D01*
X101698D02*
X104525Y107921D01*
X100678D02*
X103505Y110748D01*
X102092Y107921D02*
X104919Y110748D01*
X99264Y107921D02*
X102090Y110748D01*
X100284D02*
X103110Y107921D01*
X89706Y116748D02*
X93361Y120404D01*
X87800D02*
X91455Y116748D01*
X92042Y120404D02*
X95698Y116748D01*
X86386Y120404D02*
X90041Y116748D01*
X85463D02*
X89118Y120404D01*
X86877Y116748D02*
X90533Y120404D01*
X95363Y116748D02*
X99018Y120404D01*
X94871D02*
X98526Y116748D01*
X96285Y120404D02*
X99941Y116748D01*
X93457Y120404D02*
X97112Y116748D01*
X92534D02*
X96189Y120404D01*
X93948Y116748D02*
X97604Y120404D01*
X80729D02*
X84384Y116748D01*
X79806D02*
X83462Y120404D01*
X81220Y116748D02*
X84876Y120404D01*
X78392Y116748D02*
X82047Y120404D01*
X77900D02*
X81556Y116748D01*
X79315Y120404D02*
X82970Y116748D01*
X84049D02*
X87704Y120404D01*
X83557D02*
X87213Y116748D01*
X84971Y120404D02*
X88627Y116748D01*
X82143Y120404D02*
X85798Y116748D01*
X82635D02*
X86290Y120404D01*
X91120Y116748D02*
X94775Y120404D01*
X90778Y107921D02*
X93605Y110748D01*
X91798D02*
X94625Y107921D01*
X90628Y120404D02*
X94284Y116748D01*
X89214Y120404D02*
X92869Y116748D01*
X90384Y110748D02*
X93211Y107921D01*
X95021D02*
X97848Y110748D01*
X94627D02*
X97454Y107921D01*
X96041Y110748D02*
X98868Y107921D01*
X93213Y110748D02*
X96039Y107921D01*
X92193D02*
X95019Y110748D01*
X93607Y107921D02*
X96434Y110748D01*
X88291Y116748D02*
X91947Y120404D01*
X85122Y107921D02*
X87948Y110748D01*
X86142D02*
X88968Y107921D01*
X83707D02*
X86534Y110748D01*
X83313D02*
X86140Y107921D01*
X84727Y110748D02*
X87554Y107921D01*
X88970Y110748D02*
X91797Y107921D01*
X87950D02*
X90777Y110748D01*
X89364Y107921D02*
X92191Y110748D01*
X86536Y107921D02*
X89363Y110748D01*
X87556D02*
X90382Y107921D01*
X117254Y110748D02*
X120081Y107921D01*
X116234D02*
X119061Y110748D01*
X117648Y107921D02*
X120475Y110748D01*
X114820Y107921D02*
X117647Y110748D01*
X114426D02*
X117253Y107921D01*
X115840Y110748D02*
X118667Y107921D01*
X121497Y110748D02*
X124324Y107921D01*
X120477D02*
X123303Y110748D01*
X121891Y107921D02*
X124718Y110748D01*
X119062Y107921D02*
X121889Y110748D01*
X118668D02*
X121495Y107921D01*
X120083Y110748D02*
X122909Y107921D01*
X109163D02*
X111990Y110748D01*
X108769D02*
X111596Y107921D01*
X110183Y110748D02*
X113010Y107921D01*
X107749D02*
X110576Y110748D01*
X107355D02*
X110181Y107921D01*
X107749D02*
X110576Y110748D01*
X113012D02*
X115838Y107921D01*
X111992D02*
X114818Y110748D01*
X113406Y107921D02*
X116232Y110748D01*
X110577Y107921D02*
X113404Y110748D01*
X111597D02*
X114424Y107921D01*
X122911Y110748D02*
X125738Y107921D01*
X111353Y103921D02*
X123133Y92142D01*
X112767Y103921D02*
X124547Y92142D01*
X108961Y90748D02*
X122134Y103921D01*
X109939D02*
X121718Y92142D01*
X108961Y89334D02*
X123548Y103921D01*
X120756Y92142D02*
X125025D01*
X125322Y88538D02*
X125655Y88205D01*
X114181Y103921D02*
X125594Y92509D01*
X108961Y94991D02*
X117891Y103921D01*
X108746Y96190D02*
X116477Y103921D01*
X108961Y93577D02*
X119305Y103921D01*
X108044Y96902D02*
X115062Y103921D01*
X107336Y97609D02*
X113648Y103921D01*
X107110D02*
X119616Y91416D01*
X108961Y92163D02*
X120719Y103921D01*
X107191Y97754D02*
X108668Y96278D01*
X108525Y103921D02*
X120378Y92068D01*
X105940Y110748D02*
X108767Y107921D01*
X104920D02*
X107747Y110748D01*
X106335Y107921D02*
X109161Y110748D01*
X103506Y107921D02*
X106333Y110748D01*
X103112D02*
X105939Y107921D01*
X104526Y110748D02*
X107353Y107921D01*
X104946Y98047D02*
X110820Y103921D01*
X104676Y98047D02*
X106484D01*
X106360D02*
X112234Y103921D01*
X103985Y98501D02*
X109406Y103921D01*
X102840Y98770D02*
X107992Y103921D01*
X100039D02*
X105913Y98047D01*
X81899Y110748D02*
X84726Y107921D01*
X80879D02*
X83706Y110748D01*
X82293Y107921D02*
X85120Y110748D01*
X80485D02*
X83311Y107921D01*
X79071Y110748D02*
X81897Y107921D01*
X77656Y110748D02*
X80486Y107919D01*
X98625Y103921D02*
X104237Y98309D01*
X97211Y103921D02*
X102453Y98679D01*
X95797Y103921D02*
X101643Y98075D01*
X105696Y103921D02*
X118909Y90709D01*
X104282Y103921D02*
X118202Y90002D01*
X102868Y103921D02*
X117494Y89294D01*
X101454Y103921D02*
X116787Y88587D01*
X104608Y92096D02*
X104961Y91743D01*
X103881Y91594D02*
X104961Y90515D01*
X102638Y91423D02*
X104961Y89100D01*
X94383Y103921D02*
X101306Y96998D01*
X77480Y91795D02*
X89607Y103921D01*
X77480Y90381D02*
X91021Y103921D01*
X77480Y94623D02*
X86778Y103921D01*
X77480Y97452D02*
X83950Y103921D01*
X77480Y93209D02*
X88192Y103921D01*
X103154Y94841D02*
X103803Y95490D01*
X102990Y95314D02*
X103530Y94774D01*
X92968Y103921D02*
X102240Y94649D01*
X91554Y103921D02*
X101523Y93952D01*
X90140Y103921D02*
X101352Y92709D01*
X138693Y100623D02*
X159860Y79456D01*
X139191Y101539D02*
X159860Y80870D01*
X137747Y100155D02*
X159860Y78041D01*
X131152Y103921D02*
X159860Y75213D01*
X132566Y103921D02*
X159860Y76627D01*
X129738Y103921D02*
X159860Y73799D01*
X156980Y89407D02*
X159860Y86527D01*
X157652Y90149D02*
X159860Y87941D01*
X156713Y88260D02*
X159860Y85113D01*
X155989Y87569D02*
X159860Y83698D01*
X154682Y87463D02*
X159860Y82284D01*
X134790Y85465D02*
X153173Y103848D01*
X135264Y84525D02*
X149585Y98846D01*
X127630Y88205D02*
X150173Y110748D01*
X128216Y88205D02*
X129907Y89896D01*
X130598Y83252D02*
X131914D01*
X129231Y84205D02*
X129891Y83545D01*
X130054Y56688D02*
X159860Y86494D01*
X130250Y58297D02*
X159860Y87908D01*
Y46894D02*
Y115703D01*
X129800Y55020D02*
X159860Y85079D01*
X129631Y59093D02*
X159860Y89322D01*
X128241Y84205D02*
X159860Y52586D01*
X134086Y82602D02*
X159860Y56828D01*
X134918Y83185D02*
X159860Y58242D01*
X132053Y83221D02*
X159860Y55414D01*
X130608Y83252D02*
X159860Y54000D01*
X130321Y54126D02*
X159860Y83665D01*
X126827Y84205D02*
X159860Y51171D01*
X136947Y88227D02*
X159860Y65314D01*
X137230Y89358D02*
X159860Y66728D01*
X128533Y59409D02*
X159860Y90736D01*
X126909Y103921D02*
X159860Y70970D01*
X128324Y103921D02*
X159860Y72385D01*
X125495Y103921D02*
X159860Y69556D01*
X135280Y87066D02*
X159860Y62485D01*
X136171Y87588D02*
X159860Y63899D01*
X135285Y84232D02*
X159860Y59657D01*
X134862Y86069D02*
X159860Y61071D01*
X126637Y58927D02*
X155095Y87385D01*
X124081Y103921D02*
X159860Y68142D01*
X122399Y58932D02*
X153516Y90049D01*
X123808Y58927D02*
X153534Y88652D01*
X121391Y59338D02*
X152757Y90704D01*
X119398Y60173D02*
X152078Y92853D01*
X119398Y58759D02*
X152501Y91863D01*
X125413Y84205D02*
X159860Y49757D01*
X125223Y58927D02*
X154086Y87791D01*
X123998Y84205D02*
X159860Y48343D01*
X122584Y84205D02*
X159860Y46929D01*
X121170Y84205D02*
X159707Y45668D01*
X120323Y83638D02*
X159308Y44653D01*
X119398Y64416D02*
X150794Y95812D01*
X119398Y65830D02*
X150531Y96963D01*
X119398Y63002D02*
X151558Y95162D01*
X111361Y83250D02*
X132033Y103921D01*
X110654Y83957D02*
X130619Y103921D01*
X119398Y67244D02*
X150119Y97966D01*
X119398Y70073D02*
X132330Y83005D01*
X119398Y71487D02*
X131163Y83252D01*
X119398Y68659D02*
X133278Y82539D01*
X119398Y72901D02*
X129970Y83474D01*
X119398Y61587D02*
X151550Y93739D01*
X121819Y37139D02*
X159860Y75180D01*
X121819Y38553D02*
X159860Y76594D01*
X121819Y35724D02*
X159860Y73766D01*
X121499Y41061D02*
X159860Y79423D01*
X120792Y41769D02*
X159860Y80837D01*
X121819Y39967D02*
X159860Y78009D01*
X121819Y28653D02*
X159860Y66695D01*
X121819Y30068D02*
X159860Y68109D01*
X121819Y27239D02*
X159860Y65281D01*
X121819Y32896D02*
X159860Y70937D01*
X121819Y34310D02*
X159860Y72352D01*
X121819Y31482D02*
X159860Y69523D01*
X120085Y42476D02*
X159860Y82251D01*
X119616Y82931D02*
X158733Y43814D01*
X119398Y77492D02*
X154711Y42179D01*
X119398Y81735D02*
X158002Y43130D01*
X119398Y80320D02*
X157113Y42605D01*
X119398Y78906D02*
X156034Y42270D01*
X119398Y73249D02*
X151491Y41156D01*
X119398Y71835D02*
X150663Y40570D01*
X119398Y70421D02*
X149936Y39882D01*
X119398Y76078D02*
X153489Y41987D01*
X119398Y74664D02*
X152427Y41634D01*
X150868Y40732D02*
X159860Y49724D01*
X130314Y58090D02*
X149309Y39095D01*
X130363Y53799D02*
X148119Y36043D01*
X130149Y56841D02*
X148786Y38204D01*
X129435Y56141D02*
X148381Y37195D01*
X121860Y52403D02*
X148049Y26213D01*
X156890Y42511D02*
X159544Y45165D01*
X155160Y42195D02*
X159860Y46896D01*
X153552Y42002D02*
X159860Y48310D01*
X121819Y39715D02*
X148049Y13485D01*
X128829Y55463D02*
X129619Y56253D01*
X130030Y52717D02*
X148049Y34698D01*
X127472Y52447D02*
X148049Y31870D01*
X129223Y52110D02*
X148049Y33284D01*
X126015Y52490D02*
X148049Y30456D01*
X124601Y52490D02*
X148049Y29041D01*
X123186Y52490D02*
X148049Y27627D01*
X127963Y856D02*
X148049Y20943D01*
X126549Y856D02*
X148049Y22357D01*
Y856D02*
Y34995D01*
X123720Y856D02*
X148049Y25185D01*
X122306Y856D02*
X148049Y26599D01*
X125134Y856D02*
X148049Y23771D01*
X146347Y856D02*
X148049Y2558D01*
X144933Y856D02*
X148049Y3972D01*
X147762Y856D02*
X148049Y1144D01*
X142105Y856D02*
X148049Y6801D01*
X129377Y856D02*
X148049Y19529D01*
X143519Y856D02*
X148049Y5386D01*
X132205Y856D02*
X148049Y16700D01*
X130791Y856D02*
X148049Y18114D01*
X133620Y856D02*
X148049Y15286D01*
X121819Y31230D02*
X148049Y4999D01*
X121819Y32644D02*
X148049Y6414D01*
X121819Y29816D02*
X148049Y3585D01*
X139276Y856D02*
X148049Y9629D01*
X137862Y856D02*
X148049Y11043D01*
X140691Y856D02*
X148049Y8215D01*
X135034Y856D02*
X148049Y13872D01*
X136448Y856D02*
X148049Y12457D01*
X119612Y19375D02*
X159860Y59624D01*
X119249Y20427D02*
X159860Y61038D01*
X119398Y44965D02*
X148049Y16313D01*
X118877Y21469D02*
X159860Y62452D01*
X118877Y22884D02*
X159860Y63866D01*
X108164Y856D02*
X159860Y52553D01*
X121819Y34058D02*
X148049Y7828D01*
X121819Y35472D02*
X148049Y9242D01*
X121819Y28401D02*
X148049Y2171D01*
X121819Y38301D02*
X148049Y12070D01*
X119398Y43550D02*
X148049Y14899D01*
X121819Y36887D02*
X148049Y10656D01*
X120840Y52008D02*
X148049Y24798D01*
X120840Y52008D02*
X148049Y24799D01*
X119398Y47793D02*
X148049Y19141D01*
X119398Y50621D02*
X148049Y21970D01*
X119398Y52036D02*
X148049Y23384D01*
X119398Y49207D02*
X148049Y20556D01*
X119398Y46379D02*
X148049Y17727D01*
X118877Y21443D02*
X139464Y856D01*
X119077Y24072D02*
X142293Y856D01*
X118374Y17704D02*
X135222Y856D01*
X118877Y22858D02*
X140879Y856D01*
X109578D02*
X159860Y51139D01*
X106750Y856D02*
X159860Y53967D01*
X110992Y856D02*
X149512Y39376D01*
X103921Y856D02*
X159860Y56795D01*
X102507Y856D02*
X159860Y58210D01*
X105335Y856D02*
X159860Y55381D01*
X119477Y856D02*
X148049Y29428D01*
X118063Y856D02*
X148049Y30842D01*
X120892Y856D02*
X148049Y28014D01*
X112407Y856D02*
X148242Y36692D01*
X115235Y856D02*
X148049Y33671D01*
X116649Y856D02*
X148049Y32256D01*
X121198Y26193D02*
X146536Y856D01*
X120491Y25486D02*
X145121Y856D01*
X121795Y27011D02*
X147950Y856D01*
X113821D02*
X148049Y35084D01*
X95148Y35274D02*
X129565Y856D01*
X119784Y24779D02*
X143707Y856D01*
X119222Y18270D02*
X136636Y856D01*
X116571Y18093D02*
X133808Y856D01*
X119610Y19296D02*
X138050Y856D01*
X115222Y16613D02*
X130979Y856D01*
X116122Y17128D02*
X132393Y856D01*
X119398Y79972D02*
X123630Y84205D01*
X119398Y78558D02*
X125044Y84205D01*
X109240Y85371D02*
X127790Y103921D01*
X108961Y86506D02*
X126376Y103921D01*
X109947Y84664D02*
X129205Y103921D01*
X120890Y84205D02*
X129231D01*
X119398Y69007D02*
X129043Y59361D01*
X119398Y67592D02*
X127794Y59196D01*
X119398Y75730D02*
X127873Y84205D01*
X119398Y77144D02*
X126459Y84205D01*
X119398Y74315D02*
X129259Y84177D01*
X113690Y85491D02*
X120049Y91849D01*
X108961Y95000D02*
X116080Y87880D01*
X108961Y85650D02*
Y95571D01*
Y85650D02*
X113398Y81213D01*
X119398Y81386D02*
X122216Y84205D01*
X119398Y82712D02*
X120890Y84205D01*
X119398Y60521D02*
X120543Y59376D01*
X112776Y81835D02*
X113398Y82457D01*
X112068Y82543D02*
X113398Y83872D01*
Y81213D02*
Y84783D01*
X122419Y58927D02*
X127111D01*
X122700Y54990D02*
X124137Y56427D01*
X123492D02*
X124929Y54990D01*
X119398Y66178D02*
X126649Y58927D01*
X119398Y64764D02*
X125234Y58927D01*
X119398Y63350D02*
X123820Y58927D01*
X126320Y56427D02*
X127607Y55141D01*
X125528Y54990D02*
X126965Y56427D01*
X126942Y54990D02*
X128010Y56058D01*
X122412Y56427D02*
X127104D01*
X124114Y54990D02*
X125551Y56427D01*
X124906D02*
X126343Y54990D01*
X119398Y59107D02*
X119634Y58870D01*
X119398Y54818D02*
Y56799D01*
Y61936D02*
X122402Y58931D01*
X119398Y58556D02*
Y82712D01*
X110398Y21760D02*
Y78557D01*
X121568Y55273D02*
X122723Y56427D01*
X119398Y56279D02*
X120271Y55405D01*
X122107Y56398D02*
X123515Y54990D01*
X119398Y55931D02*
X119799Y56332D01*
X108961Y87920D02*
X124962Y103921D01*
X81727Y103849D02*
X110398Y75178D01*
X81020Y103141D02*
X110398Y73764D01*
X79606Y101727D02*
X110398Y70936D01*
X80313Y102434D02*
X110398Y72350D01*
X78899Y101020D02*
X110398Y69521D01*
X108961Y89343D02*
X113404Y84899D01*
X108961Y87929D02*
X113398Y83492D01*
X108961Y86515D02*
X113398Y82078D01*
X108961Y93586D02*
X115373Y87173D01*
X108961Y92172D02*
X114666Y86466D01*
X108961Y90757D02*
X113959Y85759D01*
X87312Y103921D02*
X104961Y86272D01*
X88726Y103921D02*
X104961Y87686D01*
X85897Y103921D02*
X104961Y84858D01*
X84483Y103921D02*
X110398Y78007D01*
X77480Y83310D02*
X98092Y103921D01*
X83069D02*
X110398Y76592D01*
X105254Y83701D02*
X110398Y78557D01*
X104961Y84408D02*
Y91743D01*
X77480Y82854D02*
Y83682D01*
X100520Y56852D02*
X110398Y66729D01*
X99106Y56852D02*
X110398Y68144D01*
X79575Y38735D02*
X110398Y69558D01*
X77480Y88296D02*
X110398Y55379D01*
X77480Y89710D02*
X110398Y56793D01*
X77480Y86882D02*
X110398Y53965D01*
X106152Y52584D02*
X110398Y56830D01*
X106152Y53998D02*
X110398Y58244D01*
X106152Y56796D02*
X110398Y52550D01*
X106152Y56827D02*
X110398Y61073D01*
X101935Y56852D02*
X110398Y65315D01*
X106152Y55412D02*
X110398Y59658D01*
X77485Y99606D02*
X110398Y66693D01*
X78192Y100313D02*
X110398Y68107D01*
X77480Y84054D02*
X104682Y56852D01*
X77480Y91125D02*
X110398Y58207D01*
X77480Y92539D02*
X110398Y59622D01*
X77480Y85468D02*
X106096Y56852D01*
X104763D02*
X110398Y62487D01*
X103349Y56852D02*
X110398Y63901D01*
X106152Y48659D02*
Y56852D01*
X97959D02*
X106152D01*
X97959Y48659D02*
Y56852D01*
X128152Y56010D02*
X128688Y55473D01*
X121131Y55959D02*
X122081Y55010D01*
X122282Y54990D02*
X127111D01*
X119398Y48860D02*
X123028Y52490D01*
X122275D02*
X127104D01*
X119398Y50274D02*
X121183Y52059D01*
X119398Y43203D02*
X128244Y52049D01*
X119398Y46031D02*
X125857Y52490D01*
X119398Y47445D02*
X124442Y52490D01*
X119398Y44617D02*
X127253Y52473D01*
X120293Y55411D02*
X120826Y55944D01*
X106152Y53968D02*
X110398Y49722D01*
X119398Y43163D02*
Y52662D01*
X106152Y55382D02*
X110398Y51136D01*
X106152Y51170D02*
X110398Y55416D01*
X106152Y49756D02*
X110398Y54002D01*
X119398Y51688D02*
X119927Y52217D01*
X106152Y51140D02*
X110398Y46894D01*
X106152Y49725D02*
X110398Y45479D01*
X106152Y52554D02*
X110398Y48308D01*
X105803Y48659D02*
X110398Y44065D01*
X121819Y27228D02*
Y40328D01*
X119398Y43163D02*
X121526Y41035D01*
X118877Y23873D02*
X121526Y26521D01*
X118877Y21002D02*
Y23873D01*
X116443Y17621D02*
X116816Y17994D01*
X101093Y856D02*
X117868Y17631D01*
X102975Y48659D02*
X110398Y41237D01*
X104389Y48659D02*
X110398Y42651D01*
X100147Y48659D02*
X110398Y38408D01*
X101561Y48659D02*
X110398Y39823D01*
X98732Y48659D02*
X110398Y36994D01*
X110690Y21053D02*
X112986Y18757D01*
X98264Y856D02*
X114135Y16727D01*
X99679Y856D02*
X115537Y16714D01*
X96206Y38395D02*
X110398Y52587D01*
X93240Y38258D02*
X103641Y48659D01*
X96803Y37579D02*
X110398Y51173D01*
X90411Y38258D02*
X100813Y48659D01*
X88997Y38258D02*
X99399Y48659D01*
X91825Y38258D02*
X102227Y48659D01*
X96805Y36444D02*
X110398Y22852D01*
X97959Y48659D02*
X106152D01*
X96211Y35624D02*
X110485Y21350D01*
X80568Y35711D02*
X115423Y856D01*
X95138Y38742D02*
X105055Y48659D01*
X86951Y856D02*
X110398Y24303D01*
X86169Y38258D02*
X97959Y50048D01*
X84754Y38258D02*
X97959Y51462D01*
X87583Y38258D02*
X97984Y48659D01*
X81926Y38258D02*
X97959Y54290D01*
X80563Y38309D02*
X97959Y55705D01*
X83340Y38258D02*
X97959Y52876D01*
X80943Y38258D02*
X93646D01*
X80936Y35758D02*
X93639D01*
X87592D02*
X122494Y856D01*
X86178Y35758D02*
X121080Y856D01*
X89007Y35758D02*
X123908Y856D01*
X83350Y35758D02*
X118251Y856D01*
X81936Y35758D02*
X116837Y856D01*
X84764Y35758D02*
X119666Y856D01*
X93249Y35758D02*
X128151Y856D01*
X95436D02*
X113091Y18511D01*
X96850Y856D02*
X113381Y17387D01*
X90421Y35758D02*
X125322Y856D01*
X79583Y35282D02*
X114009Y856D01*
X91835Y35758D02*
X126737Y856D01*
X84122D02*
X110398Y27132D01*
X82708Y856D02*
X110398Y28546D01*
X85536Y856D02*
X110398Y25717D01*
X79880Y856D02*
X110398Y31374D01*
X78465Y856D02*
X110398Y32789D01*
X81294Y856D02*
X110398Y29960D01*
X92607Y856D02*
X111747Y19996D01*
X91193Y856D02*
X111040Y20703D01*
X94022Y856D02*
X112454Y19289D01*
X88365Y856D02*
X110398Y22889D01*
X89779Y856D02*
X110430Y21507D01*
X76486Y120404D02*
X80142Y116748D01*
X75564D02*
X79219Y120404D01*
X76978Y116748D02*
X80633Y120404D01*
X74149Y116748D02*
X77805Y120404D01*
X73658D02*
X77313Y116748D01*
X75072Y120404D02*
X78727Y116748D01*
X76242Y110748D02*
X79606Y107384D01*
X74828Y110748D02*
X78899Y106677D01*
X73414Y110748D02*
X78192Y105970D01*
X70232Y110748D02*
X152025D01*
X72000D02*
X77485Y105263D01*
X70585Y110748D02*
X76778Y104556D01*
X69907Y116748D02*
X73562Y120404D01*
X69415D02*
X73071Y116748D01*
X70829Y120404D02*
X74485Y116748D01*
X68001Y120404D02*
X71656Y116748D01*
X67078D02*
X70734Y120404D01*
X68493Y116748D02*
X72148Y120404D01*
X72243D02*
X75899Y116748D01*
X71321D02*
X74976Y120404D01*
X72735Y116748D02*
X76391Y120404D01*
X66638Y104994D02*
X72392Y110748D01*
X66638Y106408D02*
X70978Y110748D01*
X69701Y110218D02*
X76070Y103849D01*
X77480Y87552D02*
X93849Y103921D01*
X77480Y88966D02*
X92435Y103921D01*
X77480Y86138D02*
X95264Y103921D01*
X77480Y96037D02*
X85364Y103921D01*
X77480Y98866D02*
X82536Y103921D01*
X66638Y95094D02*
X82291Y110748D01*
X70102Y68860D02*
X105163Y103921D01*
X77480Y84724D02*
X96678Y103921D01*
X71516Y68860D02*
X106577Y103921D01*
X68688Y68860D02*
X103749Y103921D01*
X67274Y68860D02*
X102335Y103921D01*
X68688Y68860D02*
X103749Y103921D01*
X66638Y99337D02*
X78049Y110748D01*
X68994Y109511D02*
X75363Y103141D01*
X66638Y96509D02*
X80877Y110748D01*
X66638Y102165D02*
X75220Y110748D01*
X66638Y103580D02*
X73806Y110748D01*
X66638Y100751D02*
X76635Y110748D01*
X73773Y101551D02*
X79850Y107628D01*
X68287Y108803D02*
X74656Y102434D01*
X77480Y99602D02*
X81800Y103921D01*
X67580Y108096D02*
X73949Y101727D01*
X66873Y107389D02*
X73480Y100782D01*
X65664Y116748D02*
X69320Y120404D01*
X65172D02*
X68828Y116748D01*
X66587Y120404D02*
X70242Y116748D01*
X63758Y120404D02*
X67414Y116748D01*
X62836D02*
X66491Y120404D01*
X64250Y116748D02*
X67905Y120404D01*
X62353Y114748D02*
X67161D01*
X66585D02*
X66873Y114460D01*
X65171Y114748D02*
X66166Y113753D01*
X943Y120404D02*
X155160D01*
X62353Y116748D02*
X154220D01*
X61167Y108754D02*
X67161Y114748D01*
X61786Y117113D02*
X65077Y120404D01*
X60741Y117482D02*
X63663Y120404D01*
X60930D02*
X64585Y116748D01*
X59516Y120404D02*
X63171Y116748D01*
X52444Y120404D02*
X62630Y110218D01*
X52444Y120404D02*
X62630Y110217D01*
X62344Y120404D02*
X66000Y116748D01*
X63757Y114748D02*
X65459Y113046D01*
X62345Y114746D02*
X64752Y112339D01*
X61484Y114193D02*
X64044Y111632D01*
X60155Y114107D02*
X63337Y110925D01*
X66638Y107154D02*
X70232Y110748D01*
X60323Y108579D02*
X66492Y114748D01*
X35473Y120404D02*
X63003Y92874D01*
X31393Y81062D02*
X65078Y114748D01*
X26988Y120404D02*
X63190Y84202D01*
X17089Y120404D02*
X63438Y74054D01*
X66638Y106210D02*
X73480Y99367D01*
X66638Y106210D02*
X73480Y99368D01*
X66638Y104796D02*
X73480Y97953D01*
X66638Y97923D02*
X79463Y110748D01*
X66638Y85236D02*
Y107154D01*
X65859Y68860D02*
X100920Y103921D01*
X62377Y106390D02*
X62638Y106651D01*
Y101367D02*
Y107397D01*
X43959Y120404D02*
X62638Y101725D01*
X25574Y120404D02*
X62483Y83495D01*
X15675Y120404D02*
X62731Y73347D01*
X61717Y105473D02*
X62638Y104553D01*
X62336Y106269D02*
X62638Y105967D01*
X60618Y105158D02*
X62638Y103139D01*
X35700Y78299D02*
X62638Y105236D01*
X35914Y77098D02*
X62638Y103822D01*
X73480Y84096D02*
Y100844D01*
X66638Y96310D02*
X73480Y89468D01*
X66638Y90852D02*
X73480Y97694D01*
X66638Y89438D02*
X73480Y96280D01*
X66638Y86609D02*
X73480Y93452D01*
X66638Y93482D02*
X73480Y86639D01*
X66638Y92068D02*
X73480Y85225D01*
X66638Y88023D02*
X73480Y94866D01*
X66638Y94896D02*
X73480Y88054D01*
X66637Y85194D02*
X73480Y92037D01*
X66638Y99139D02*
X73480Y92296D01*
X66638Y93680D02*
X73480Y100523D01*
X66638Y92266D02*
X73480Y99108D01*
X66638Y101967D02*
X73480Y95125D01*
X66638Y103381D02*
X73480Y96539D01*
X66638Y100553D02*
X73480Y93710D01*
X66638Y97724D02*
X73480Y90882D01*
X66638Y90653D02*
X73338Y83953D01*
X64638Y85650D02*
Y91680D01*
X77480Y98196D02*
X110398Y65279D01*
X77480Y83686D02*
Y99602D01*
Y96782D02*
X110398Y63865D01*
X73868Y68384D02*
X101586Y96101D01*
X72930Y68860D02*
X101317Y97246D01*
X73868Y66969D02*
X102353Y95455D01*
X73868Y64141D02*
X101716Y91989D01*
X65281Y68860D02*
X73868D01*
X68388Y73347D02*
X72875Y68860D01*
X73868Y65555D02*
X101309Y92996D01*
X66638Y89239D02*
X72631Y83246D01*
X66638Y87825D02*
X71924Y82539D01*
X66638Y86411D02*
X71216Y81832D01*
X66614Y85020D02*
X70509Y81125D01*
X66018Y84202D02*
X69802Y80418D01*
X65311Y83495D02*
X69095Y79711D01*
X66974Y71933D02*
X70046Y68860D01*
X66267Y71226D02*
X68632Y68860D01*
X67681Y72640D02*
X71460Y68860D01*
X64852Y69811D02*
X65804Y68860D01*
X65560Y70518D02*
X67218Y68860D01*
X63710Y90753D02*
X64638Y89825D01*
X64417Y91460D02*
X64638Y91239D01*
X63003Y90045D02*
X64638Y88411D01*
X62581Y89623D02*
X64638Y91680D01*
X62581Y89623D02*
X64638Y91680D01*
X62465Y89170D02*
X64638Y86997D01*
X64604Y82788D02*
X68388Y79004D01*
X62581Y80765D02*
X66345Y84529D01*
X63897Y82081D02*
X67681Y78297D01*
X61167Y82179D02*
X64638Y85650D01*
X62097Y88123D02*
X64604Y85616D01*
X60668Y82054D02*
X64638Y86023D01*
X62817Y98717D02*
X63638Y97896D01*
X62581Y98482D02*
X63638Y99538D01*
Y93509D02*
Y99538D01*
X62455Y97983D02*
X63638Y99165D01*
X61167Y99896D02*
X62638Y101367D01*
X62419Y97701D02*
X63638Y96482D01*
X61167Y91038D02*
X63638Y93509D01*
X61921Y96784D02*
X63638Y95068D01*
X61275Y87531D02*
X63897Y84909D01*
X60975Y96316D02*
X63638Y93653D01*
X56597Y68083D02*
X73480Y84966D01*
X55182Y68083D02*
X73480Y86381D01*
X57467Y68083D02*
X73480Y84096D01*
X52354Y68083D02*
X73480Y89209D01*
X50940Y68083D02*
X73480Y90623D01*
X53768Y68083D02*
X73480Y87795D01*
X63190Y81374D02*
X66974Y77590D01*
X62504Y80645D02*
X66267Y76882D01*
X62731Y67690D02*
X65281Y65140D01*
X59417Y64376D02*
X77187Y82146D01*
X62243Y79492D02*
X65560Y76175D01*
X62024Y66983D02*
X65281Y63726D01*
X46962Y72590D02*
X64638Y90266D01*
X44184Y75469D02*
X63638Y94923D01*
X47089Y71303D02*
X64638Y88852D01*
X42944Y75643D02*
X63638Y96337D01*
X35569Y75339D02*
X62638Y102408D01*
X41020Y75133D02*
X63638Y97751D01*
X64145Y69104D02*
X65281Y67968D01*
X61535Y78786D02*
X64852Y75468D01*
X63438Y68397D02*
X65281Y66554D01*
X60266Y78640D02*
X64145Y74761D01*
X46237Y69037D02*
X64638Y87437D01*
X58101Y120404D02*
X61056Y117449D01*
X56687Y120404D02*
X59844Y117247D01*
X49616Y120404D02*
X61216Y108803D01*
X39716Y120404D02*
X60386Y99734D01*
X48201Y120404D02*
X60096Y108509D01*
X31231Y120404D02*
X60713Y90921D01*
X51030Y120404D02*
X61923Y109510D01*
X42545Y120404D02*
X62110Y100839D01*
X34059Y120404D02*
X62296Y92167D01*
X41130Y120404D02*
X61402Y100131D01*
X32645Y120404D02*
X61589Y91460D01*
X36888Y120404D02*
X59002Y98290D01*
X45373Y120404D02*
X58985Y106791D01*
X943Y87382D02*
X33964Y120404D01*
X943Y90210D02*
X31136Y120404D01*
X943Y91625D02*
X29722Y120404D01*
X943Y88796D02*
X32550Y120404D01*
X55273D02*
X59161Y116515D01*
X53859Y120404D02*
X59076Y115187D01*
X46787Y120404D02*
X59300Y107890D01*
X29817Y120404D02*
X59667Y90553D01*
X38302Y120404D02*
X59469Y99236D01*
X28403Y120404D02*
X59075Y89731D01*
X22746Y120404D02*
X61046Y82103D01*
X21331Y120404D02*
X59894Y81841D01*
X19917Y120404D02*
X59188Y81133D01*
X11432Y120404D02*
X60610Y71226D01*
X10018Y120404D02*
X59903Y70518D01*
X8603Y120404D02*
X59196Y69811D01*
X34584Y80011D02*
X59921Y105349D01*
X33756Y80598D02*
X59202Y106044D01*
X35235Y79248D02*
X61216Y105229D01*
X14260Y120404D02*
X62024Y72640D01*
X24160Y120404D02*
X61775Y82788D01*
X12846Y120404D02*
X61317Y71933D01*
X2947Y120404D02*
X55268Y68083D01*
X1532Y120404D02*
X53853Y68083D01*
X943Y67583D02*
X53763Y120404D01*
X943Y73240D02*
X48106Y120404D01*
X943Y76068D02*
X45278Y120404D01*
X943Y68997D02*
X52349Y120404D01*
X18503D02*
X59042Y79865D01*
X32727Y80983D02*
X59027Y107283D01*
X7189Y120404D02*
X58489Y69104D01*
X5775Y120404D02*
X57781Y68397D01*
X4361Y120404D02*
X56682Y68083D01*
X943Y98696D02*
X22651Y120404D01*
X943Y100110D02*
X21236Y120404D01*
X943Y97282D02*
X24065Y120404D01*
X943Y102938D02*
X18408Y120404D01*
X943Y104353D02*
X16994Y120404D01*
X943Y101524D02*
X19822Y120404D01*
X943Y84554D02*
X36793Y120404D01*
X943Y85968D02*
X35379Y120404D01*
X943Y83139D02*
X38207Y120404D01*
X943Y94453D02*
X26893Y120404D01*
X943Y95867D02*
X25479Y120404D01*
X943Y93039D02*
X28308Y120404D01*
X943Y114252D02*
X7094Y120404D01*
X943Y115666D02*
X5680Y120404D01*
X943Y112838D02*
X8508Y120404D01*
X943Y118495D02*
X2852Y120404D01*
X943Y119909D02*
X1438Y120404D01*
X943Y117080D02*
X4266Y120404D01*
X943Y107181D02*
X14165Y120404D01*
X943Y108595D02*
X12751Y120404D01*
X943Y105767D02*
X15580Y120404D01*
X943Y111424D02*
X9923Y120404D01*
X943Y110010D02*
X11337Y120404D01*
X943Y71826D02*
X49521Y120404D01*
X943Y74654D02*
X46692Y120404D01*
X943Y70412D02*
X50935Y120404D01*
X943Y78897D02*
X42450Y120404D01*
X943Y80311D02*
X41035Y120404D01*
X943Y77483D02*
X43864Y120404D01*
X943Y118165D02*
X43494Y75614D01*
X943Y116751D02*
X42141Y75552D01*
X943Y115336D02*
X41102Y75177D01*
X943Y66169D02*
X55177Y120404D01*
X943Y119579D02*
X52439Y68083D01*
X943Y64755D02*
X56592Y120404D01*
X943Y111094D02*
X31029Y81008D01*
X943Y109679D02*
X29976Y80647D01*
X943Y108265D02*
X29130Y80078D01*
X943Y81725D02*
X39621Y120404D01*
X943Y112508D02*
X32409Y81042D01*
X943Y113922D02*
X40267Y74598D01*
X943Y102608D02*
X27973Y75579D01*
X943Y104023D02*
X27730Y77236D01*
X943Y101194D02*
X29680Y72457D01*
X943Y106851D02*
X28460Y79334D01*
X943Y105437D02*
X27975Y78405D01*
X45942Y74398D02*
X59490Y87947D01*
X35458Y72400D02*
X59691Y96633D01*
X45158Y75029D02*
X59008Y88878D01*
X36235Y71762D02*
X60770Y96298D01*
X46550Y73592D02*
X60422Y87464D01*
X46630Y69649D02*
X48197Y68083D01*
X46697D02*
X58983Y80369D01*
X39770Y68227D02*
X40149Y68606D01*
X35833Y72164D02*
X39914Y68083D01*
X46051Y68814D02*
X46782Y68083D01*
X35873Y77578D02*
X39608Y73843D01*
X35838Y76198D02*
X39134Y72902D01*
X36942Y71055D02*
X39414Y73527D01*
X35477Y75145D02*
X38907Y71715D01*
X34909Y74299D02*
X39206Y70002D01*
X38356Y69641D02*
X39078Y70363D01*
X37649Y70348D02*
X38904Y71603D01*
X39063Y68934D02*
X39518Y69389D01*
X35531Y68230D02*
X36235Y68934D01*
X48111Y68083D02*
X59318Y79289D01*
X47067Y72041D02*
X51025Y68083D01*
X49525D02*
X60127Y78684D01*
X47005Y70688D02*
X49611Y68083D01*
X45283D02*
X45510Y68310D01*
X45186Y68083D02*
X57467D01*
X39914D02*
X40814D01*
X45204Y64083D02*
X58710D01*
X37279Y67083D02*
X38086D01*
X37224Y67095D02*
X37649Y67520D01*
X37279Y65083D02*
X38164D01*
X36289Y67574D02*
X36942Y68227D01*
X35132Y68584D02*
X36150Y67678D01*
X36414Y67481D01*
X39993Y64083D02*
X40796D01*
X37088Y65049D02*
X37609Y64528D01*
X36199Y64523D02*
X36902Y63820D01*
X36145Y64483D02*
X36414Y64684D01*
X35499Y63929D02*
X36145Y64483D01*
X34101Y72457D02*
X59086Y97442D01*
X33235Y73144D02*
X33923Y72457D01*
X34164Y73630D02*
X35367Y72427D01*
X32066Y72899D02*
X32509Y72457D01*
X32686D02*
X33468Y73238D01*
X31823Y70179D02*
X32101Y70457D01*
X31680D02*
X31960Y70177D01*
X33048Y69990D02*
X33515Y70457D01*
X29221Y72457D02*
X35126D01*
X31272D02*
X31709Y72893D01*
X29635Y70457D02*
X34712D01*
X30409Y73142D02*
X31095Y72457D01*
X29858D02*
X30508Y73107D01*
X943Y95537D02*
X26415Y70065D01*
X943Y99780D02*
X28537Y72186D01*
X943Y98366D02*
X27829Y71479D01*
X943Y96952D02*
X27122Y70772D01*
X30266Y70457D02*
X30700Y70023D01*
X29966Y69736D02*
X30686Y70457D01*
X29243Y70065D02*
X29713Y69596D01*
X34509Y70457D02*
X37883Y67083D01*
X34014Y69541D02*
X34820Y70348D01*
X34712Y70457D02*
X38086Y67083D01*
X33095Y70457D02*
X34003Y69548D01*
X25561Y69211D02*
X28513Y72164D01*
X27268Y68090D02*
X29635Y70457D01*
X34801Y68915D02*
X35528Y69641D01*
X28536Y69358D02*
X28919Y68976D01*
X34749Y68966D02*
X35132Y68584D01*
X27829Y68651D02*
X28300Y68180D01*
X27268Y67038D02*
X28166Y67936D01*
X27268Y64970D02*
X28378Y63859D01*
X943Y89881D02*
X25268Y65556D01*
X943Y88466D02*
X25268Y64141D01*
X943Y94123D02*
X25708Y69358D01*
X943Y92709D02*
X25268Y68384D01*
X943Y91295D02*
X25268Y66970D01*
X27268Y66384D02*
X27725Y65926D01*
X27268Y65624D02*
X27722Y66079D01*
X27268Y64210D02*
X27911Y64853D01*
X27268Y67798D02*
X27875Y67191D01*
X77480Y95367D02*
X110398Y62450D01*
X77480Y95368D02*
X110398Y62450D01*
X77480Y93953D02*
X110398Y61036D01*
X73868Y61313D02*
X104630Y92074D01*
X73868Y62727D02*
X102579Y91438D01*
X46808Y51223D02*
X99506Y103921D01*
X76873Y81832D02*
X101853Y56852D01*
X76166Y81125D02*
X100439Y56852D01*
X77461Y82658D02*
X103267Y56852D01*
X75459Y80418D02*
X99025Y56852D01*
X72631Y77590D02*
X97959Y52262D01*
X71924Y76882D02*
X97959Y50847D01*
X74752Y79711D02*
X97959Y56504D01*
X73868Y60274D02*
Y68860D01*
X74045Y79004D02*
X97959Y55090D01*
X73338Y78297D02*
X97959Y53676D01*
X65281Y60274D02*
Y68860D01*
X47080Y50081D02*
X65281Y68282D01*
X60610Y65569D02*
X65281Y60897D01*
X61317Y66276D02*
X65281Y62311D01*
X47038Y59938D02*
X51182Y64083D01*
X47033Y61348D02*
X49768Y64083D01*
X46687Y62415D02*
X48354Y64083D01*
X46304Y52134D02*
X58253Y64083D01*
X73868Y66453D02*
X110398Y29923D01*
X73868Y67867D02*
X110398Y31337D01*
X73868Y65038D02*
X110398Y28509D01*
X69802Y74761D02*
X110398Y34166D01*
X70509Y75468D02*
X110398Y35580D01*
X69095Y74054D02*
X110398Y32752D01*
X73868Y62210D02*
X110398Y25681D01*
X73868Y63624D02*
X110398Y27095D01*
X73868Y60796D02*
X110398Y24266D01*
X47954Y64083D02*
X111180Y856D01*
X46540Y64083D02*
X109766Y856D01*
X49368Y64083D02*
X112594Y856D01*
X71216Y76175D02*
X97959Y49433D01*
X59160Y64190D02*
X85092Y38258D01*
X59903Y64862D02*
X86507Y38258D01*
X52197Y64083D02*
X78120Y38159D01*
X46913Y48499D02*
X65281Y66868D01*
X50782Y64083D02*
X77691Y37174D01*
X56439Y64083D02*
X82264Y38258D01*
X55025Y64083D02*
X80834Y38274D01*
X57853Y64083D02*
X83678Y38258D01*
X53611Y64083D02*
X79002Y38692D01*
X46571Y62637D02*
X108352Y856D01*
X943Y53441D02*
X62223Y114721D01*
X943Y54855D02*
X60185Y114097D01*
X17654Y856D02*
X104961Y88162D01*
X943Y59098D02*
X62248Y120404D01*
X943Y60512D02*
X60834Y120404D01*
X943Y52027D02*
X63664Y114748D01*
X45017Y42361D02*
X65281Y62625D01*
X44008Y42766D02*
X65281Y64040D01*
X45829Y41758D02*
X65281Y61211D01*
X42709Y42881D02*
X65281Y65454D01*
X42709Y42881D02*
X65281Y65454D01*
X19069Y856D02*
X104961Y86748D01*
X46130Y63273D02*
X46940Y64083D01*
X943Y56270D02*
X59352Y114678D01*
X943Y61926D02*
X59420Y120404D01*
X943Y63341D02*
X58006Y120404D01*
X943Y57684D02*
X58982Y115723D01*
X44756Y53414D02*
X55425Y64083D01*
X43680Y53752D02*
X54011Y64083D01*
X45619Y52863D02*
X56839Y64083D01*
X42346Y53832D02*
X52597Y64083D01*
X30382Y856D02*
X109240Y79714D01*
X28968Y856D02*
X108533Y80421D01*
X31797Y856D02*
X109947Y79007D01*
X26140Y856D02*
X107119Y81835D01*
X24725Y856D02*
X106412Y82543D01*
X27554Y856D02*
X107826Y81128D01*
X38868Y856D02*
X110398Y72386D01*
X37453Y856D02*
X110398Y73801D01*
X40282Y856D02*
X110398Y70972D01*
X34625Y856D02*
X110398Y76629D01*
X33211Y856D02*
X110398Y78043D01*
X36039Y856D02*
X110398Y75215D01*
X21897Y856D02*
X105045Y84005D01*
X20483Y856D02*
X104961Y85334D01*
X23311Y856D02*
X105705Y83250D01*
X14826Y856D02*
X104961Y90991D01*
X943Y68667D02*
X68754Y856D01*
X16240D02*
X104961Y89577D01*
X943Y64425D02*
X64511Y856D01*
X943Y63011D02*
X63097Y856D01*
X943Y61596D02*
X61683Y856D01*
X943Y67253D02*
X67340Y856D01*
X943Y65839D02*
X65926Y856D01*
X70148Y60274D02*
X92163Y38258D01*
X68733Y60274D02*
X90749Y38258D01*
X71562Y60274D02*
X93578Y38258D01*
X67319Y60274D02*
X89335Y38258D01*
X65905Y60274D02*
X87921Y38258D01*
X47096Y60698D02*
X106938Y856D01*
X72976Y60274D02*
X94602Y38648D01*
X53010Y856D02*
X87911Y35758D01*
X54424Y856D02*
X89325Y35758D01*
X46924Y59455D02*
X105523Y856D01*
X46486Y58479D02*
X104109Y856D01*
X47084Y49396D02*
X95624Y856D01*
X65281Y60274D02*
X73868D01*
X47096Y38784D02*
X68586Y60274D01*
X47025Y39555D02*
X85725Y856D01*
X46911Y40013D02*
X67172Y60274D01*
X46465Y40980D02*
X65758Y60274D01*
X46637Y36910D02*
X70001Y60274D01*
X50181Y856D02*
X85083Y35758D01*
X48767Y856D02*
X83669Y35758D01*
X51595Y856D02*
X86497Y35758D01*
X47041Y38125D02*
X84310Y856D01*
X47353D02*
X82254Y35758D01*
X67152Y856D02*
X110398Y44102D01*
X65737Y856D02*
X110398Y45516D01*
X68566Y856D02*
X110398Y42688D01*
X62909Y856D02*
X110398Y48345D01*
X61495Y856D02*
X110398Y49759D01*
X64323Y856D02*
X110398Y46931D01*
X75637Y856D02*
X110398Y35617D01*
X74223Y856D02*
X110398Y37031D01*
X77051Y856D02*
X110398Y34203D01*
X71394Y856D02*
X110398Y39860D01*
X69980Y856D02*
X110398Y41274D01*
X72809Y856D02*
X110398Y38445D01*
X46824Y48242D02*
X94210Y856D01*
X46705Y37047D02*
X82896Y856D01*
X46886Y51008D02*
X97038Y856D01*
X45857Y57694D02*
X102695Y856D01*
X46155Y36183D02*
X81482Y856D01*
X46328Y47324D02*
X92795Y856D01*
X58666D02*
X93568Y35758D01*
X57252Y856D02*
X92154Y35758D01*
X60081Y856D02*
X94595Y35370D01*
X45939Y856D02*
X80825Y35743D01*
X55838Y856D02*
X90740Y35758D01*
X11998Y856D02*
X71415Y60274D01*
X13412Y856D02*
X72829Y60274D01*
X943Y55939D02*
X56026Y856D01*
X943Y54525D02*
X54612Y856D01*
X943Y53111D02*
X53198Y856D01*
X33372Y40481D02*
X72997Y856D01*
X30691Y40334D02*
X70168Y856D01*
X943Y48868D02*
X48955Y856D01*
X32242Y40197D02*
X71582Y856D01*
X41011Y53912D02*
X43692Y56592D01*
X41921Y53838D02*
X42977Y53824D01*
X40540Y57354D02*
X44296Y53599D01*
X34500Y52080D02*
X43760Y42821D01*
X38094Y58386D02*
X42652Y53828D01*
X943Y46040D02*
X46127Y856D01*
X40179Y41765D02*
X44213Y45800D01*
X9169Y856D02*
X43012Y34699D01*
X10583Y856D02*
X44886Y35159D01*
X943Y3944D02*
X42632Y45633D01*
X943Y44626D02*
X44712Y856D01*
X45052Y57085D02*
X101281Y856D01*
X44794Y46030D02*
X89967Y856D01*
X45649Y46588D02*
X91381Y856D01*
X42769Y56540D02*
X98452Y856D01*
X43728Y45681D02*
X88553Y856D01*
X44052Y56671D02*
X99867Y856D01*
X44524D02*
X78994Y35326D01*
X44519Y34991D02*
X78653Y856D01*
X45428Y35496D02*
X80068Y856D01*
X943D02*
X148049D01*
X42322Y45673D02*
X87139Y856D01*
X43110D02*
X78116Y35862D01*
X943Y51697D02*
X51783Y856D01*
X943Y50283D02*
X50369Y856D01*
X943Y47454D02*
X47541Y856D01*
X943Y60182D02*
X60269Y856D01*
X943Y58768D02*
X58855Y856D01*
X943Y57354D02*
X57440Y856D01*
X41696D02*
X77690Y36851D01*
X41804Y34877D02*
X75825Y856D01*
X43379Y34716D02*
X77239Y856D01*
X943Y43211D02*
X43298Y856D01*
X34274Y40993D02*
X74411Y856D01*
X39731Y63820D02*
X40064Y63487D01*
X39024Y63113D02*
X39455Y62682D01*
X38094Y62184D02*
X39993Y64083D01*
X36387Y63305D02*
X38164Y65083D01*
X32212Y59255D02*
X38040Y65083D01*
X38094Y59800D02*
X39724Y58170D01*
X38317Y62406D02*
X39041Y61682D01*
X38094Y58066D02*
X39180Y59151D01*
X38094Y60894D02*
X39108Y61908D01*
X38094Y61214D02*
X38910Y60399D01*
X38094Y59480D02*
X38917Y60302D01*
X35439Y63870D02*
X36222Y63087D01*
X34742Y63192D02*
X35499Y63929D01*
X34718Y63176D02*
X36094Y61800D01*
X30645Y59102D02*
X34723Y63180D01*
X34256Y58470D02*
X36094Y60308D01*
X33916Y62564D02*
X36094Y60386D01*
X34981Y57781D02*
X36094Y58894D01*
X33349Y58977D02*
X36094Y61723D01*
X29596Y62642D02*
X33206Y59032D01*
X32927Y62139D02*
X36094Y58972D01*
X39199Y54928D02*
X41214Y56943D01*
X38492Y55635D02*
X40357Y57500D01*
X39917Y54232D02*
X42282Y56597D01*
X38094Y56652D02*
X39677Y58234D01*
X38094Y56032D02*
Y62184D01*
Y56972D02*
X41170Y53895D01*
X40739Y53951D02*
X41072Y53903D01*
X38094Y56032D02*
X39846Y54281D01*
X41072Y53903D02*
X41921Y53838D01*
X35907Y54916D02*
X38740Y52084D01*
X36387Y54911D02*
X38432Y52866D01*
X35659Y53750D02*
X38874Y50536D01*
X35862Y55834D02*
X36094Y56066D01*
X35673Y56564D02*
X36094Y56143D01*
Y55618D02*
Y62598D01*
X35529Y56914D02*
X36094Y57480D01*
X31663Y61989D02*
X36094Y57557D01*
X35840Y54398D02*
X36371Y54928D01*
X31247Y48390D02*
X37078Y54221D01*
X27268Y53656D02*
X32639Y48285D01*
X27268Y62141D02*
X30392Y59017D01*
X27268Y59967D02*
X29812Y62511D01*
X27268Y58553D02*
X30824Y62109D01*
X27268Y61381D02*
X28998Y63112D01*
X27268Y62795D02*
X28360Y63888D01*
X27268Y63556D02*
X31558Y59265D01*
X27268Y57899D02*
X28156Y57011D01*
X27268Y56485D02*
X27797Y55955D01*
X27268Y55724D02*
X27894Y56351D01*
X27268Y60727D02*
X29465Y58530D01*
X27268Y59313D02*
X28722Y57859D01*
X27268Y57139D02*
X32127Y61998D01*
X943Y81395D02*
X25268Y57070D01*
X943Y82809D02*
X25268Y58485D01*
X943Y79981D02*
X25268Y55656D01*
X943Y85638D02*
X25268Y61313D01*
X943Y87052D02*
X25268Y62727D01*
X943Y84224D02*
X25268Y59899D01*
X27268Y55070D02*
X27768Y54571D01*
X27268Y54310D02*
X27741Y54784D01*
X943Y75738D02*
X25268Y51414D01*
X943Y78567D02*
X25268Y54242D01*
X943Y77153D02*
X25268Y52828D01*
X943Y46370D02*
X28796Y74223D01*
X943Y47784D02*
X28209Y75051D01*
X943Y44956D02*
X29559Y73572D01*
X943Y49198D02*
X27824Y76080D01*
X943Y50613D02*
X27745Y77414D01*
X943Y72910D02*
X27624Y46229D01*
X27268Y50237D02*
Y68090D01*
X943Y30814D02*
X25268Y55138D01*
X943Y29399D02*
X25268Y53724D01*
X943Y70082D02*
X27881Y43144D01*
X943Y71496D02*
X27707Y44731D01*
X943Y32228D02*
X25268Y56553D01*
X943Y42127D02*
X25268Y66452D01*
Y49823D02*
Y68504D01*
X943Y40713D02*
X25268Y65038D01*
X943Y43542D02*
X25268Y67866D01*
X943Y74324D02*
X25268Y49999D01*
X943Y120404D02*
X943Y856D01*
Y35056D02*
X25268Y59381D01*
X943Y36471D02*
X25268Y60795D01*
X943Y33642D02*
X25268Y57967D01*
X943Y39299D02*
X25268Y63624D01*
X943Y37885D02*
X25268Y62210D01*
X35172Y52823D02*
X38960Y49035D01*
X38762Y51973D02*
X38809Y51647D01*
X34483Y47383D02*
X38801Y51701D01*
X32570Y48299D02*
X37785Y53513D01*
X27268Y52242D02*
X31118Y48392D01*
X33631Y47945D02*
X38481Y52795D01*
X38888Y50286D02*
X38889Y49745D01*
X38809Y51647D02*
X38888Y50286D01*
X35158Y46644D02*
X38883Y50369D01*
X29904Y48461D02*
X32598Y51156D01*
X28782Y48754D02*
X31162Y51134D01*
X30740Y48397D02*
X31796Y48382D01*
X28060Y49445D02*
X30082Y51467D01*
X27352Y50152D02*
X29215Y52015D01*
X27268Y50237D02*
X28665Y48840D01*
X27268Y51482D02*
X28526Y52740D01*
X27268Y52896D02*
X28019Y53647D01*
X27268Y50828D02*
X29590Y48505D01*
X29891Y48462D02*
X30740Y48397D01*
X29558Y48510D02*
X29891Y48462D01*
X25561Y49116D02*
X27251Y47425D01*
X35691Y42934D02*
X39850Y47094D01*
X35905Y44563D02*
X39299Y47957D01*
X35833Y45091D02*
X39701Y41223D01*
X33652Y51514D02*
X42330Y42836D01*
X32597Y51155D02*
X41252Y42500D01*
X31212Y51126D02*
X40387Y41951D01*
X6341Y856D02*
X40815Y35330D01*
X35867Y43643D02*
X39195Y40314D01*
X7755Y856D02*
X41783Y34884D01*
X943Y41797D02*
X41884Y856D01*
X3512D02*
X39434Y36778D01*
X4927Y856D02*
X40037Y35967D01*
X35650Y45722D02*
X38960Y49032D01*
X27628Y46206D02*
X27707Y44845D01*
X27581Y46532D02*
X27628Y46206D01*
X27707Y44845D02*
X27708Y44304D01*
X34996Y41685D02*
X39082Y37599D01*
X35539Y42557D02*
X38921Y39174D01*
X2098Y856D02*
X39029Y37788D01*
X943Y15257D02*
X28145Y42459D01*
X943Y17756D02*
X17842Y856D01*
X943Y8186D02*
X33156Y40400D01*
X943Y11015D02*
X30369Y40440D01*
X943Y40383D02*
X40470Y856D01*
X943Y5358D02*
X41490Y45905D01*
X943Y6772D02*
X40579Y46408D01*
X943Y2530D02*
X40030Y41617D01*
X943Y38969D02*
X39055Y856D01*
X943Y37555D02*
X37641Y856D01*
X943Y36140D02*
X36227Y856D01*
X943Y1115D02*
X38914Y39086D01*
X943Y9601D02*
X31528Y40185D01*
X943Y1115D02*
X38914Y39086D01*
X943Y22329D02*
X26645Y48031D01*
X943Y23743D02*
X25938Y48738D01*
X943Y20914D02*
X27337Y47308D01*
X943Y26571D02*
X25268Y50896D01*
X943Y27985D02*
X25268Y52310D01*
X943Y25157D02*
X25313Y49527D01*
X943Y13843D02*
X28707Y41607D01*
X943Y16672D02*
X27792Y43521D01*
X943Y12429D02*
X29446Y40932D01*
X943Y19500D02*
X27629Y46186D01*
X943Y18086D02*
X27707Y44850D01*
X943Y30484D02*
X30570Y856D01*
X943Y29069D02*
X29156Y856D01*
X943Y27655D02*
X27742Y856D01*
X943Y34726D02*
X34813Y856D01*
X943Y33312D02*
X33399Y856D01*
X943Y31898D02*
X31984Y856D01*
X943Y21998D02*
X22085Y856D01*
X943Y20584D02*
X20671Y856D01*
X943Y19170D02*
X19257Y856D01*
X943Y26241D02*
X26328Y856D01*
X943Y24827D02*
X24913Y856D01*
X943Y23413D02*
X23499Y856D01*
X943Y12099D02*
X12185Y856D01*
X943Y10685D02*
X10771Y856D01*
X943Y9270D02*
X9357Y856D01*
X943Y16341D02*
X16428Y856D01*
X943Y14927D02*
X15014Y856D01*
X943Y13513D02*
X13600Y856D01*
X943Y5028D02*
X5114Y856D01*
X943Y3614D02*
X3700Y856D01*
X943Y2199D02*
X2286Y856D01*
X943Y7856D02*
X7943Y856D01*
X943Y6442D02*
X6529Y856D01*
X105008Y93110D02*
X105961Y92158D01*
X103039Y93110D02*
X105008D01*
X105961Y84408D02*
Y92158D01*
X103039Y97047D02*
X106484D01*
X107961Y85236D02*
Y95571D01*
X106484Y97047D02*
X107961Y95571D01*
X105961Y84408D02*
X111398Y78971D01*
X105500Y95079D02*
X106961Y93618D01*
Y84822D02*
Y93618D01*
Y84822D02*
X112398Y79385D01*
X107961Y85236D02*
X113398Y79799D01*
X130614Y89189D02*
X135504D01*
X120202Y89173D02*
X123709D01*
X128630Y87205D02*
X130614Y89189D01*
X120476Y85205D02*
X129646D01*
X120062Y86205D02*
X129598D01*
X119647Y87205D02*
X128630D01*
X120756Y91142D02*
X126661D01*
X115398Y84369D02*
X120202Y89173D01*
X116398Y83955D02*
X119647Y87205D01*
X117398Y83541D02*
X120062Y86205D01*
X118398Y83127D02*
X120476Y85205D01*
X130598Y84252D02*
X133551D01*
X129646Y85205D02*
X130598Y84252D01*
X130598Y87205D02*
X133551D01*
X129598Y86205D02*
X130598Y87205D01*
X69817Y111748D02*
X152439D01*
X65638Y107568D02*
X69817Y111748D01*
X152439D02*
X154173Y110014D01*
X152854Y112748D02*
X155173Y110428D01*
X69403Y112748D02*
X152854D01*
X64638Y107983D02*
X69403Y112748D01*
X68989Y113748D02*
X153268D01*
X63638Y108397D02*
X68989Y113748D01*
X153268D02*
X156173Y110843D01*
X153806Y114748D02*
X157173Y111381D01*
X60716Y106890D02*
X68575Y114748D01*
X153806D01*
X154220Y115748D02*
X158173Y111795D01*
X60716Y115748D02*
X154220D01*
X158173Y92085D02*
Y111795D01*
X157173Y94587D02*
Y111381D01*
X156173Y97081D02*
Y110843D01*
X155173Y99673D02*
Y110428D01*
X154173Y102171D02*
Y110014D01*
X120819Y27228D02*
Y40328D01*
X117877Y24287D02*
X120819Y27228D01*
X119819Y29181D02*
Y39913D01*
X114850Y24213D02*
X119819Y29181D01*
X118819Y31134D02*
Y38945D01*
X114850Y27165D02*
X118819Y31134D01*
X117819Y33087D02*
Y37976D01*
X114850Y30118D02*
X117819Y33087D01*
X113398Y37245D02*
X114850Y35792D01*
Y33071D02*
X116819Y35039D01*
X112398Y23713D02*
Y79385D01*
X111398Y21760D02*
Y78971D01*
X112398Y23713D02*
X114850Y21260D01*
X117877Y19365D02*
Y24287D01*
X111398Y21760D02*
X114850Y18307D01*
X80557Y106921D02*
X137520D01*
X74480Y100844D02*
X80557Y106921D01*
X74480Y83682D02*
Y100844D01*
X75480Y100430D02*
X80972Y105921D01*
X75480Y83268D02*
Y100430D01*
X76480Y100016D02*
X81386Y104921D01*
X134437D01*
X76480Y83682D02*
Y100016D01*
X58710Y65083D02*
X76480Y82854D01*
Y83682D01*
X76480Y83682D02*
X76480Y83682D01*
X57881Y67083D02*
X74480Y83682D01*
X58295Y66083D02*
X75480Y83268D01*
X75480Y83268D02*
X75480Y83268D01*
X26268Y49823D02*
Y68504D01*
X29221Y71457D02*
X35126D01*
X26268Y68504D02*
X29221Y71457D01*
X35126D02*
X39500Y67083D01*
X37095Y55618D02*
X43000Y49713D01*
X37095Y55618D02*
Y62598D01*
X39579Y65083D01*
X39500Y67083D02*
X57881D01*
X39579Y65083D02*
X58710D01*
X134437Y104921D02*
X137488Y101870D01*
X80972Y105921D02*
X135504D01*
X136996Y104429D02*
X139457D01*
X135504Y105921D02*
X136996Y104429D01*
X137520Y106921D02*
X137587Y106988D01*
X31819Y66083D02*
X58295D01*
X26268Y49823D02*
X31819Y44272D01*
X118398Y42749D02*
X120819Y40328D01*
X118398Y42749D02*
Y83127D01*
X117398Y42335D02*
Y83541D01*
Y42335D02*
X119819Y39913D01*
X116398Y41366D02*
X118819Y38945D01*
X116398Y41366D02*
Y83955D01*
X113398Y37245D02*
Y79799D01*
X115398Y40398D02*
Y84369D01*
X114398Y84783D02*
X120756Y91142D01*
X114398Y39429D02*
Y84783D01*
X151268Y99266D02*
X154173Y102171D01*
X63638Y100953D02*
Y108397D01*
X60716Y98032D02*
X63638Y100953D01*
X60716Y80315D02*
X65638Y85236D01*
Y107568D01*
X64638Y93094D02*
Y107983D01*
X60716Y89173D02*
X64638Y93094D01*
X152252Y96752D02*
X155173Y99673D01*
X155205Y89116D02*
X158173Y92085D01*
X154220Y91634D02*
X157173Y94587D01*
X153236Y94144D02*
X156173Y97081D01*
X115398Y40398D02*
X117819Y37976D01*
X114398Y39429D02*
X116819Y37008D01*
Y35039D02*
Y37008D01*
D66*
X102055Y52756D02*
D03*
X43000Y82464D02*
D03*
D67*
X102055Y62598D02*
D03*
X31819Y44272D02*
D03*
X31819Y55177D02*
D03*
Y66083D02*
D03*
X43000Y49713D02*
D03*
Y60630D02*
D03*
Y71547D02*
D03*
Y38795D02*
D03*
X31819Y76988D02*
D03*
D68*
X37409Y109843D02*
D03*
X37409Y11417D02*
D03*
D69*
X69575Y64567D02*
D03*
D70*
Y50787D02*
D03*
D71*
X103039Y93110D02*
D03*
Y97047D02*
D03*
X138472Y36024D02*
D03*
X57764Y25197D02*
D03*
Y22244D02*
D03*
X2646Y5512D02*
D03*
X5598D02*
D03*
Y2559D02*
D03*
X2646D02*
D03*
Y115748D02*
D03*
X5598D02*
D03*
Y118701D02*
D03*
X2646D02*
D03*
X108945Y73425D02*
D03*
X105500Y95079D02*
D03*
X109929Y89173D02*
D03*
Y86220D02*
D03*
X135504Y89189D02*
D03*
X149299Y73425D02*
D03*
X123709Y89173D02*
D03*
X136504Y68504D02*
D03*
X133551D02*
D03*
Y84252D02*
D03*
X146346Y52756D02*
D03*
X106976Y40945D02*
D03*
Y43898D02*
D03*
X105992Y73425D02*
D03*
X120756Y53740D02*
D03*
X128630Y57677D02*
D03*
X131583Y44882D02*
D03*
X146346Y45866D02*
D03*
X128630Y94095D02*
D03*
Y97047D02*
D03*
X138472Y94095D02*
D03*
Y97047D02*
D03*
X152252Y73425D02*
D03*
X131583Y47835D02*
D03*
X146346Y42913D02*
D03*
X135520Y9449D02*
D03*
X138472Y20276D02*
D03*
Y17323D02*
D03*
Y14370D02*
D03*
X137488Y7480D02*
D03*
X140441Y6496D02*
D03*
Y12402D02*
D03*
X143394Y6496D02*
D03*
Y12402D02*
D03*
X146346D02*
D03*
Y6496D02*
D03*
X65638Y4527D02*
D03*
Y7480D02*
D03*
X96150Y22244D02*
D03*
X121740Y3543D02*
D03*
X145362Y36024D02*
D03*
Y33071D02*
D03*
X133551Y87205D02*
D03*
X137488Y101870D02*
D03*
X139457Y104429D02*
D03*
X137587Y106988D02*
D03*
X128630Y29134D02*
D03*
X132567D02*
D03*
X128630Y25197D02*
D03*
X130598Y27165D02*
D03*
X132567Y25197D02*
D03*
X114850Y35792D02*
D03*
Y33071D02*
D03*
X117877Y19365D02*
D03*
X114850Y18307D02*
D03*
X60716Y106890D02*
D03*
Y98032D02*
D03*
Y89173D02*
D03*
Y80315D02*
D03*
X155205Y89116D02*
D03*
X154220Y91634D02*
D03*
X153236Y94144D02*
D03*
X152252Y96752D02*
D03*
X151268Y99266D02*
D03*
X118787Y3543D02*
D03*
X132567D02*
D03*
X124102Y7382D02*
D03*
X127252Y11516D02*
D03*
X128630Y53740D02*
D03*
X126661Y91142D02*
D03*
X114850Y21260D02*
D03*
Y24213D02*
D03*
Y27165D02*
D03*
Y30118D02*
D03*
X60716Y115748D02*
D03*
X75480Y32087D02*
D03*
Y34055D02*
D03*
Y30118D02*
D03*
X71543Y37008D02*
D03*
X79417D02*
D03*
X93197Y22244D02*
D03*
X73512Y26181D02*
D03*
X70559D02*
D03*
X95165Y37008D02*
D03*
X120893Y57677D02*
D03*
M02*
